[ConversionWorker] Logging FFmpeg output to: ffmpeg_logs\ffmpeg_conversion_黄蓉02_wav_20250525_174817.log\n[ConversionWorker] Getting duration with command: ffprobe -v error -show_entries format=duration -of default=noprint_wrappers=1:nokey=1 Z:\Story\黄蓉\黄蓉02.wav\n[ConversionWorker] Duration for 黄蓉02.wav: 18234618 ms\n[ConversionWorker] Starting FFmpeg for 黄蓉02.wav: ffmpeg -i Z:\Story\黄蓉\黄蓉02.wav -b:a 128k -vn -y -loglevel error -stats -progress pipe:1 Z:\Story\黄蓉\黄蓉02.mp3\n[ConversionWorker] FFmpeg process started. PID: 28920\n[STDOUT RAW] bitrate= 123.9kbits/s\n[STDOUT RAW] total_size=81452\n[STDOUT RAW] out_time_us=5257958\n[STDOUT RAW] out_time_ms=5257958\n[STDOUT RAW] out_time=00:00:05.257958\n[STDOUT RAW] dup_frames=0\n[STDOUT RAW] drop_frames=0\n[STDOUT RAW] speed=10.2x\n[STDOUT RAW] progress=continue\n[STDERR RAW] size=      80KiB time=00:00:05.25 bitrate= 123.9kbits/s speed=10.2x\n[STDOUT RAW] bitrate= 125.9kbits/s\n[STDOUT RAW] total_size=162476\n[STDOUT RAW] out_time_us=10321958\n[STDOUT RAW] out_time_ms=10321958\n[STDOUT RAW] out_time=00:00:10.321958\n[STDOUT RAW] dup_frames=0\n[STDOUT RAW] drop_frames=0\n[STDOUT RAW] speed=9.98x\n[STDOUT RAW] progress=continue\n[STDOUT RAW] bitrate= 126.6kbits/s\n[STDOUT RAW] total_size=240812\n[STDOUT RAW] out_time_us=15217958\n[STDOUT RAW] out_time_ms=15217958\n[STDOUT RAW] out_time=00:00:15.217958\n[STDOUT RAW] dup_frames=0\n[STDOUT RAW] drop_frames=0\n[STDOUT RAW] speed=9.86x\n[STDOUT RAW] progress=continue\n[STDERR RAW] size=     159KiB time=00:00:10.32 bitrate= 125.9kbits/s speed=9.98x\n[STDERR RAW] size=     235KiB time=00:00:15.21 bitrate= 126.6kbits/s speed=9.86x\n[STDOUT RAW] bitrate= 120.0kbits/s\n[STDOUT RAW] total_size=1572864\n[STDOUT RAW] out_time_us=104833958\n[STDOUT RAW] out_time_ms=104833958\n[STDOUT RAW] out_time=00:01:44.833958\n[STDOUT RAW] dup_frames=0\n[STDOUT RAW] drop_frames=0\n[STDOUT RAW] speed=50.6x\n[STDOUT RAW] progress=continue\n[STDERR RAW] size=    1536KiB time=00:01:44.83 bitrate= 120.0kbits/s speed=50.6x\n[STDOUT RAW] bitrate= 124.0kbits/s\n[STDOUT RAW] total_size=3407872\n[STDOUT RAW] out_time_us=219937958\n[STDOUT RAW] out_time_ms=219937958\n[STDOUT RAW] out_time=00:03:39.937958\n[STDOUT RAW] dup_frames=0\n[STDOUT RAW] drop_frames=0\n[STDOUT RAW] speed=85.1x\n[STDOUT RAW] progress=continue\n[STDERR RAW] size=    3328KiB time=00:03:39.93 bitrate= 124.0kbits/s speed=85.1x\n[STDOUT RAW] bitrate= 124.4kbits/s\n[STDOUT RAW] total_size=5242880\n[STDOUT RAW] out_time_us=337153958\n[STDOUT RAW] out_time_ms=337153958\n[STDOUT RAW] out_time=00:05:37.153958\n[STDOUT RAW] dup_frames=0\n[STDOUT RAW] drop_frames=0\n[STDOUT RAW] speed= 109x\n[STDOUT RAW] progress=continue\n[STDERR RAW] size=    5120KiB time=00:05:37.15 bitrate= 124.4kbits/s speed= 109x\n[STDOUT RAW] bitrate= 126.2kbits/s\n[STDOUT RAW] total_size=7077888\n[STDOUT RAW] out_time_us=448609958\n[STDOUT RAW] out_time_ms=448609958\n[STDOUT RAW] out_time=00:07:28.609958\n[STDOUT RAW] dup_frames=0\n[STDOUT RAW] drop_frames=0\n[STDOUT RAW] speed= 124x\n[STDOUT RAW] progress=continue\n[STDERR RAW] size=    6912KiB time=00:07:28.60 bitrate= 126.2kbits/s speed= 124x\n[STDOUT RAW] bitrate= 126.6kbits/s\n[STDOUT RAW] total_size=8912896\n[STDOUT RAW] out_time_us=563353958\n[STDOUT RAW] out_time_ms=563353958\n[STDOUT RAW] out_time=00:09:23.353958\n[STDOUT RAW] dup_frames=0\n[STDOUT RAW] drop_frames=0\n[STDOUT RAW] speed= 137x\n[STDOUT RAW] progress=continue\n[STDERR RAW] size=    8704KiB time=00:09:23.35 bitrate= 126.6kbits/s speed= 137x\n[STDOUT RAW] bitrate= 126.8kbits/s\n[STDOUT RAW] total_size=10747904\n[STDOUT RAW] out_time_us=678361958\n[STDOUT RAW] out_time_ms=678361958\n[STDOUT RAW] out_time=00:11:18.361958\n[STDOUT RAW] dup_frames=0\n[STDOUT RAW] drop_frames=0\n[STDOUT RAW] speed= 146x\n[STDOUT RAW] progress=continue\n[STDERR RAW] size=   10496KiB time=00:11:18.36 bitrate= 126.8kbits/s speed= 146x\n[STDOUT RAW] bitrate= 127.2kbits/s\n[STDOUT RAW] total_size=12582912\n[STDOUT RAW] out_time_us=791473958\n[STDOUT RAW] out_time_ms=791473958\n[STDOUT RAW] out_time=00:13:11.473958\n[STDOUT RAW] dup_frames=0\n[STDOUT RAW] drop_frames=0\n[STDOUT RAW] speed= 154x\n[STDOUT RAW] progress=continue\n[STDERR RAW] size=   12288KiB time=00:13:11.47 bitrate= 127.2kbits/s speed= 154x\n[STDOUT RAW] bitrate= 127.9kbits/s\n[STDOUT RAW] total_size=14417920\n[STDOUT RAW] out_time_us=901609958\n[STDOUT RAW] out_time_ms=901609958\n[STDOUT RAW] out_time=00:15:01.609958\n[STDOUT RAW] dup_frames=0\n[STDOUT RAW] drop_frames=0\n[STDOUT RAW] speed= 159x\n[STDOUT RAW] progress=continue\n[STDERR RAW] size=   14080KiB time=00:15:01.60 bitrate= 127.9kbits/s speed= 159x\n[STDOUT RAW] bitrate= 127.2kbits/s\n[STDOUT RAW] total_size=15990784\n[STDOUT RAW] out_time_us=1005721958\n[STDOUT RAW] out_time_ms=1005721958\n[STDOUT RAW] out_time=00:16:45.721958\n[STDOUT RAW] dup_frames=0\n[STDOUT RAW] drop_frames=0\n[STDOUT RAW] speed= 162x\n[STDOUT RAW] progress=continue\n[STDERR RAW] size=   15616KiB time=00:16:45.72 bitrate= 127.2kbits/s speed= 162x\n[STDOUT RAW] bitrate= 126.5kbits/s\n[STDOUT RAW] total_size=17563648\n[STDOUT RAW] out_time_us=1110553958\n[STDOUT RAW] out_time_ms=1110553958\n[STDOUT RAW] out_time=00:18:30.553958\n[STDOUT RAW] dup_frames=0\n[STDOUT RAW] drop_frames=0\n[STDOUT RAW] speed= 165x\n[STDOUT RAW] progress=continue\n[STDERR RAW] size=   17152KiB time=00:18:30.55 bitrate= 126.5kbits/s speed= 165x\n[STDOUT RAW] bitrate= 127.5kbits/s\n[STDOUT RAW] total_size=19398656\n[STDOUT RAW] out_time_us=1216801958\n[STDOUT RAW] out_time_ms=1216801958\n[STDOUT RAW] out_time=00:20:16.801958\n[STDOUT RAW] dup_frames=0\n[STDOUT RAW] drop_frames=0\n[STDOUT RAW] speed= 168x\n[STDOUT RAW] progress=continue\n[STDERR RAW] size=   18944KiB time=00:20:16.80 bitrate= 127.5kbits/s speed= 168x\n[STDOUT RAW] bitrate= 127.9kbits/s\n[STDOUT RAW] total_size=21233664\n[STDOUT RAW] out_time_us=1328449958\n[STDOUT RAW] out_time_ms=1328449958\n[STDOUT RAW] out_time=00:22:08.449958\n[STDOUT RAW] dup_frames=0\n[STDOUT RAW] drop_frames=0\n[STDOUT RAW] speed= 172x\n[STDOUT RAW] progress=continue\n[STDERR RAW] size=   20736KiB time=00:22:08.44 bitrate= 127.9kbits/s speed= 172x\n[STDOUT RAW] bitrate= 126.9kbits/s\n[STDOUT RAW] total_size=22806528\n[STDOUT RAW] out_time_us=1438153958\n[STDOUT RAW] out_time_ms=1438153958\n[STDOUT RAW] out_time=00:23:58.153958\n[STDOUT RAW] dup_frames=0\n[STDOUT RAW] drop_frames=0\n[STDOUT RAW] speed= 174x\n[STDOUT RAW] progress=continue\n[STDERR RAW] size=   22272KiB time=00:23:58.15 bitrate= 126.9kbits/s speed= 174x\n[STDOUT RAW] bitrate= 127.6kbits/s\n[STDOUT RAW] total_size=24641536\n[STDOUT RAW] out_time_us=1544545958\n[STDOUT RAW] out_time_ms=1544545958\n[STDOUT RAW] out_time=00:25:44.545958\n[STDOUT RAW] dup_frames=0\n[STDOUT RAW] drop_frames=0\n[STDOUT RAW] speed= 176x\n[STDOUT RAW] progress=continue\n[STDERR RAW] size=   24064KiB time=00:25:44.54 bitrate= 127.6kbits/s speed= 176x\n[STDOUT RAW] bitrate= 126.7kbits/s\n[STDOUT RAW] total_size=26214400\n[STDOUT RAW] out_time_us=1654921958\n[STDOUT RAW] out_time_ms=1654921958\n[STDOUT RAW] out_time=00:27:34.921958\n[STDOUT RAW] dup_frames=0\n[STDOUT RAW] drop_frames=0\n[STDOUT RAW] speed= 178x\n[STDOUT RAW] progress=continue\n[STDERR RAW] size=   25600KiB time=00:27:34.92 bitrate= 126.7kbits/s speed= 178x\n[STDOUT RAW] bitrate= 127.6kbits/s\n[STDOUT RAW] total_size=28049408\n[STDOUT RAW] out_time_us=1759129958\n[STDOUT RAW] out_time_ms=1759129958\n[STDOUT RAW] out_time=00:29:19.129958\n[STDOUT RAW] dup_frames=0\n[STDOUT RAW] drop_frames=0\n[STDOUT RAW] speed= 179x\n[STDOUT RAW] progress=continue\n[STDERR RAW] size=   27392KiB time=00:29:19.12 bitrate= 127.6kbits/s speed= 179x\n[STDOUT RAW] bitrate= 127.9kbits/s\n[STDOUT RAW] total_size=29884416\n[STDOUT RAW] out_time_us=1869865958\n[STDOUT RAW] out_time_ms=1869865958\n[STDOUT RAW] out_time=00:31:09.865958\n[STDOUT RAW] dup_frames=0\n[STDOUT RAW] drop_frames=0\n[STDOUT RAW] speed= 181x\n[STDOUT RAW] progress=continue\n[STDERR RAW] size=   29184KiB time=00:31:09.86 bitrate= 127.9kbits/s speed= 181x\n[STDOUT RAW] bitrate= 127.4kbits/s\n[STDOUT RAW] total_size=31457280\n[STDOUT RAW] out_time_us=1974625958\n[STDOUT RAW] out_time_ms=1974625958\n[STDOUT RAW] out_time=00:32:54.625958\n[STDOUT RAW] dup_frames=0\n[STDOUT RAW] drop_frames=0\n[STDOUT RAW] speed= 182x\n[STDOUT RAW] progress=continue\n[STDERR RAW] size=   30720KiB time=00:32:54.62 bitrate= 127.4kbits/s speed= 182x\n[STDOUT RAW] bitrate= 127.6kbits/s\n[STDOUT RAW] total_size=33292288\n[STDOUT RAW] out_time_us=2087281958\n[STDOUT RAW] out_time_ms=2087281958\n[STDOUT RAW] out_time=00:34:47.281958\n[STDOUT RAW] dup_frames=0\n[STDOUT RAW] drop_frames=0\n[STDOUT RAW] speed= 184x\n[STDOUT RAW] progress=continue\n[STDERR RAW] size=   32512KiB time=00:34:47.28 bitrate= 127.6kbits/s speed= 184x\n[STDOUT RAW] bitrate= 127.6kbits/s\n[STDOUT RAW] total_size=35127296\n[STDOUT RAW] out_time_us=2202241958\n[STDOUT RAW] out_time_ms=2202241958\n[STDOUT RAW] out_time=00:36:42.241958\n[STDOUT RAW] dup_frames=0\n[STDOUT RAW] drop_frames=0\n[STDOUT RAW] speed= 186x\n[STDOUT RAW] progress=continue\n[STDERR RAW] size=   34304KiB time=00:36:42.24 bitrate= 127.6kbits/s speed= 186x\n[STDOUT RAW] bitrate= 127.1kbits/s\n[STDOUT RAW] total_size=36700160\n[STDOUT RAW] out_time_us=2310265958\n[STDOUT RAW] out_time_ms=2310265958\n[STDOUT RAW] out_time=00:38:30.265958\n[STDOUT RAW] dup_frames=0\n[STDOUT RAW] drop_frames=0\n[STDOUT RAW] speed= 187x\n[STDOUT RAW] progress=continue\n[STDERR RAW] size=   35840KiB time=00:38:30.26 bitrate= 127.1kbits/s speed= 187x\n[STDOUT RAW] bitrate= 127.4kbits/s\n[STDOUT RAW] total_size=38535168\n[STDOUT RAW] out_time_us=2419681958\n[STDOUT RAW] out_time_ms=2419681958\n[STDOUT RAW] out_time=00:40:19.681958\n[STDOUT RAW] dup_frames=0\n[STDOUT RAW] drop_frames=0\n[STDOUT RAW] speed= 188x\n[STDOUT RAW] progress=continue\n[STDERR RAW] size=   37632KiB time=00:40:19.68 bitrate= 127.4kbits/s speed= 188x\n[STDOUT RAW] bitrate= 127.9kbits/s\n[STDOUT RAW] total_size=40370176\n[STDOUT RAW] out_time_us=2524513958\n[STDOUT RAW] out_time_ms=2524513958\n[STDOUT RAW] out_time=00:42:04.513958\n[STDOUT RAW] dup_frames=0\n[STDOUT RAW] drop_frames=0\n[STDOUT RAW] speed= 188x\n[STDOUT RAW] progress=continue\n[STDERR RAW] size=   39424KiB time=00:42:04.51 bitrate= 127.9kbits/s speed= 188x\n[STDOUT RAW] bitrate= 127.2kbits/s\n[STDOUT RAW] total_size=41943040\n[STDOUT RAW] out_time_us=2637961958\n[STDOUT RAW] out_time_ms=2637961958\n[STDOUT RAW] out_time=00:43:57.961958\n[STDOUT RAW] dup_frames=0\n[STDOUT RAW] drop_frames=0\n[STDOUT RAW] speed= 190x\n[STDOUT RAW] progress=continue\n[STDERR RAW] size=   40960KiB time=00:43:57.96 bitrate= 127.2kbits/s speed= 190x\n[STDOUT RAW] bitrate= 127.3kbits/s\n[STDOUT RAW] total_size=43778048\n[STDOUT RAW] out_time_us=2751385958\n[STDOUT RAW] out_time_ms=2751385958\n[STDOUT RAW] out_time=00:45:51.385958\n[STDOUT RAW] dup_frames=0\n[STDOUT RAW] drop_frames=0\n[STDOUT RAW] speed= 191x\n[STDOUT RAW] progress=continue\n[STDERR RAW] size=   42752KiB time=00:45:51.38 bitrate= 127.3kbits/s speed= 191x\n[STDOUT RAW] bitrate= 127.4kbits/s\n[STDOUT RAW] total_size=45613056\n[STDOUT RAW] out_time_us=2864305958\n[STDOUT RAW] out_time_ms=2864305958\n[STDOUT RAW] out_time=00:47:44.305958\n[STDOUT RAW] dup_frames=0\n[STDOUT RAW] drop_frames=0\n[STDOUT RAW] speed= 191x\n[STDOUT RAW] progress=continue\n[STDERR RAW] size=   44544KiB time=00:47:44.30 bitrate= 127.4kbits/s speed= 191x\n[STDOUT RAW] bitrate= 127.8kbits/s\n[STDOUT RAW] total_size=47448064\n[STDOUT RAW] out_time_us=2970553958\n[STDOUT RAW] out_time_ms=2970553958\n[STDOUT RAW] out_time=00:49:30.553958\n[STDOUT RAW] dup_frames=0\n[STDOUT RAW] drop_frames=0\n[STDOUT RAW] speed= 192x\n[STDOUT RAW] progress=continue\n[STDERR RAW] size=   46336KiB time=00:49:30.55 bitrate= 127.8kbits/s speed= 192x\n[STDOUT RAW] bitrate= 127.5kbits/s\n[STDOUT RAW] total_size=49020928\n[STDOUT RAW] out_time_us=3076897958\n[STDOUT RAW] out_time_ms=3076897958\n[STDOUT RAW] out_time=00:51:16.897958\n[STDOUT RAW] dup_frames=0\n[STDOUT RAW] drop_frames=0\n[STDOUT RAW] speed= 192x\n[STDOUT RAW] progress=continue\n[STDERR RAW] size=   47872KiB time=00:51:16.89 bitrate= 127.5kbits/s speed= 192x\n[STDOUT RAW] bitrate= 127.9kbits/s\n[STDOUT RAW] total_size=50855936\n[STDOUT RAW] out_time_us=3181537958\n[STDOUT RAW] out_time_ms=3181537958\n[STDOUT RAW] out_time=00:53:01.537958\n[STDOUT RAW] dup_frames=0\n[STDOUT RAW] drop_frames=0\n[STDOUT RAW] speed= 193x\n[STDOUT RAW] progress=continue\n[STDERR RAW] size=   49664KiB time=00:53:01.53 bitrate= 127.9kbits/s speed= 193x\n[STDOUT RAW] bitrate= 127.6kbits/s\n[STDOUT RAW] total_size=52428800\n[STDOUT RAW] out_time_us=3287161958\n[STDOUT RAW] out_time_ms=3287161958\n[STDOUT RAW] out_time=00:54:47.161958\n[STDOUT RAW] dup_frames=0\n[STDOUT RAW] drop_frames=0\n[STDOUT RAW] speed= 193x\n[STDOUT RAW] progress=continue\n[STDERR RAW] size=   51200KiB time=00:54:47.16 bitrate= 127.6kbits/s speed= 193x\n[STDOUT RAW] bitrate= 127.4kbits/s\n[STDOUT RAW] total_size=54001664\n[STDOUT RAW] out_time_us=3391609958\n[STDOUT RAW] out_time_ms=3391609958\n[STDOUT RAW] out_time=00:56:31.609958\n[STDOUT RAW] dup_frames=0\n[STDOUT RAW] drop_frames=0\n[STDOUT RAW] speed= 193x\n[STDOUT RAW] progress=continue\n[STDERR RAW] size=   52736KiB time=00:56:31.60 bitrate= 127.4kbits/s speed= 193x\n[STDOUT RAW] bitrate= 127.9kbits/s\n[STDOUT RAW] total_size=55836672\n[STDOUT RAW] out_time_us=3491473958\n[STDOUT RAW] out_time_ms=3491473958\n[STDOUT RAW] out_time=00:58:11.473958\n[STDOUT RAW] dup_frames=0\n[STDOUT RAW] drop_frames=0\n[STDOUT RAW] speed= 193x\n[STDOUT RAW] progress=continue\n[STDERR RAW] size=   54528KiB time=00:58:11.47 bitrate= 127.9kbits/s speed= 193x\n[STDOUT RAW] bitrate= 127.7kbits/s\n[STDOUT RAW] total_size=57147392\n[STDOUT RAW] out_time_us=3579913958\n[STDOUT RAW] out_time_ms=3579913958\n[STDOUT RAW] out_time=00:59:39.913958\n[STDOUT RAW] dup_frames=0\n[STDOUT RAW] drop_frames=0\n[STDOUT RAW] speed= 193x\n[STDOUT RAW] progress=continue\n[STDERR RAW] size=   55808KiB time=00:59:39.91 bitrate= 127.7kbits/s speed= 193x\n[STDOUT RAW] bitrate= 128.0kbits/s\n[STDOUT RAW] total_size=58982400\n[STDOUT RAW] out_time_us=3686689958\n[STDOUT RAW] out_time_ms=3686689958\n[STDOUT RAW] out_time=01:01:26.689958\n[STDOUT RAW] dup_frames=0\n[STDOUT RAW] drop_frames=0\n[STDOUT RAW] speed= 193x\n[STDOUT RAW] progress=continue\n[STDERR RAW] size=   57600KiB time=01:01:26.68 bitrate= 128.0kbits/s speed= 193x\n[STDOUT RAW] bitrate= 127.5kbits/s\n[STDOUT RAW] total_size=60293120\n[STDOUT RAW] out_time_us=3783073958\n[STDOUT RAW] out_time_ms=3783073958\n[STDOUT RAW] out_time=01:03:03.073958\n[STDOUT RAW] dup_frames=0\n[STDOUT RAW] drop_frames=0\n[STDOUT RAW] speed= 193x\n[STDOUT RAW] progress=continue\n[STDERR RAW] size=   58880KiB time=01:03:03.07 bitrate= 127.5kbits/s speed= 193x\n[STDOUT RAW] bitrate= 127.7kbits/s\n[STDOUT RAW] total_size=61865984\n[STDOUT RAW] out_time_us=3877105958\n[STDOUT RAW] out_time_ms=3877105958\n[STDOUT RAW] out_time=01:04:37.105958\n[STDOUT RAW] dup_frames=0\n[STDOUT RAW] drop_frames=0\n[STDOUT RAW] speed= 193x\n[STDOUT RAW] progress=continue\n[STDERR RAW] size=   60416KiB time=01:04:37.10 bitrate= 127.7kbits/s speed= 193x\n[STDOUT RAW] bitrate= 127.7kbits/s\n[STDOUT RAW] total_size=63438848\n[STDOUT RAW] out_time_us=3974545958\n[STDOUT RAW] out_time_ms=3974545958\n[STDOUT RAW] out_time=01:06:14.545958\n[STDOUT RAW] dup_frames=0\n[STDOUT RAW] drop_frames=0\n[STDOUT RAW] speed= 193x\n[STDOUT RAW] progress=continue\n[STDOUT RAW] bitrate= 127.7kbits/s\n[STDOUT RAW] total_size=65011712\n[STDERR RAW] size=   61952KiB time=01:06:14.54 bitrate= 127.7kbits/s speed= 193x\n[STDOUT RAW] out_time_us=4074169958\n[STDOUT RAW] out_time_ms=4074169958\n[STDOUT RAW] out_time=01:07:54.169958\n[STDOUT RAW] dup_frames=0\n[STDOUT RAW] drop_frames=0\n[STDOUT RAW] speed= 193x\n[STDOUT RAW] progress=continue\n[STDERR RAW] size=   63488KiB time=01:07:54.16 bitrate= 127.7kbits/s speed= 193x\n[STDOUT RAW] bitrate= 127.5kbits/s\n[STDOUT RAW] total_size=66584576\n[STDOUT RAW] out_time_us=4178041958\n[STDOUT RAW] out_time_ms=4178041958\n[STDOUT RAW] out_time=01:09:38.041958\n[STDOUT RAW] dup_frames=0\n[STDOUT RAW] drop_frames=0\n[STDOUT RAW] speed= 193x\n[STDOUT RAW] progress=continue\n[STDERR RAW] size=   65024KiB time=01:09:38.04 bitrate= 127.5kbits/s speed= 193x\n[STDOUT RAW] bitrate= 127.5kbits/s\n[STDOUT RAW] total_size=68157440\n[STDOUT RAW] out_time_us=4276345958\n[STDOUT RAW] out_time_ms=4276345958\n[STDOUT RAW] out_time=01:11:16.345958\n[STDOUT RAW] dup_frames=0\n[STDOUT RAW] drop_frames=0\n[STDOUT RAW] speed= 193x\n[STDOUT RAW] progress=continue\n[STDERR RAW] size=   66560KiB time=01:11:16.34 bitrate= 127.5kbits/s speed= 193x\n[STDOUT RAW] bitrate= 127.7kbits/s\n[STDOUT RAW] total_size=69730304\n[STDOUT RAW] out_time_us=4366825958\n[STDOUT RAW] out_time_ms=4366825958\n[STDOUT RAW] out_time=01:12:46.825958\n[STDOUT RAW] dup_frames=0\n[STDOUT RAW] drop_frames=0\n[STDOUT RAW] speed= 192x\n[STDOUT RAW] progress=continue\n[STDERR RAW] size=   68096KiB time=01:12:46.82 bitrate= 127.7kbits/s speed= 192x\n[STDOUT RAW] bitrate= 127.7kbits/s\n[STDOUT RAW] total_size=71041024\n[STDOUT RAW] out_time_us=4448881958\n[STDOUT RAW] out_time_ms=4448881958\n[STDOUT RAW] out_time=01:14:08.881958\n[STDOUT RAW] dup_frames=0\n[STDOUT RAW] drop_frames=0\n[STDOUT RAW] speed= 192x\n[STDOUT RAW] progress=continue\n[STDERR RAW] size=   69376KiB time=01:14:08.88 bitrate= 127.7kbits/s speed= 192x\n[STDOUT RAW] bitrate= 127.5kbits/s\n[STDOUT RAW] total_size=72613888\n[STDOUT RAW] out_time_us=4554889958\n[STDOUT RAW] out_time_ms=4554889958\n[STDOUT RAW] out_time=01:15:54.889958\n[STDOUT RAW] dup_frames=0\n[STDOUT RAW] drop_frames=0\n[STDOUT RAW] speed= 192x\n[STDOUT RAW] progress=continue\n[STDERR RAW] size=   70912KiB time=01:15:54.88 bitrate= 127.5kbits/s speed= 192x\n[STDOUT RAW] bitrate= 127.7kbits/s\n[STDOUT RAW] total_size=74448896\n[STDOUT RAW] out_time_us=4663489958\n[STDOUT RAW] out_time_ms=4663489958\n[STDOUT RAW] out_time=01:17:43.489958\n[STDOUT RAW] dup_frames=0\n[STDOUT RAW] drop_frames=0\n[STDOUT RAW] speed= 192x\n[STDOUT RAW] progress=continue\n[STDOUT RAW] bitrate= 127.6kbits/s\n[STDOUT RAW] total_size=76021760\n[STDERR RAW] size=   72704KiB time=01:17:43.48 bitrate= 127.7kbits/s speed= 192x\n[STDOUT RAW] out_time_us=4767865958\n[STDOUT RAW] out_time_ms=4767865958\n[STDOUT RAW] out_time=01:19:27.865958\n[STDOUT RAW] dup_frames=0\n[STDOUT RAW] drop_frames=0\n[STDOUT RAW] speed= 193x\n[STDOUT RAW] progress=continue\n[STDERR RAW] size=   74240KiB time=01:19:27.86 bitrate= 127.6kbits/s speed= 193x\n[STDOUT RAW] bitrate= 127.8kbits/s\n[STDOUT RAW] total_size=77856768\n[STDOUT RAW] out_time_us=4871881958\n[STDOUT RAW] out_time_ms=4871881958\n[STDOUT RAW] out_time=01:21:11.881958\n[STDOUT RAW] dup_frames=0\n[STDOUT RAW] drop_frames=0\n[STDOUT RAW] speed= 193x\n[STDOUT RAW] progress=continue\n[STDERR RAW] size=   76032KiB time=01:21:11.88 bitrate= 127.8kbits/s speed= 193x\n[STDOUT RAW] bitrate= 127.6kbits/s\n[STDOUT RAW] total_size=79429632\n[STDOUT RAW] out_time_us=4980865958\n[STDOUT RAW] out_time_ms=4980865958\n[STDOUT RAW] out_time=01:23:00.865958\n[STDOUT RAW] dup_frames=0\n[STDOUT RAW] drop_frames=0\n[STDOUT RAW] speed= 193x\n[STDOUT RAW] progress=continue\n[STDERR RAW] size=   77568KiB time=01:23:00.86 bitrate= 127.6kbits/s speed= 193x\n[STDOUT RAW] bitrate= 127.8kbits/s\n[STDOUT RAW] total_size=81264640\n[STDOUT RAW] out_time_us=5088193958\n[STDOUT RAW] out_time_ms=5088193958\n[STDOUT RAW] out_time=01:24:48.193958\n[STDOUT RAW] dup_frames=0\n[STDOUT RAW] drop_frames=0\n[STDOUT RAW] speed= 193x\n[STDOUT RAW] progress=continue\n[STDERR RAW] size=   79360KiB time=01:24:48.19 bitrate= 127.8kbits/s speed= 193x\n[STDOUT RAW] bitrate= 127.8kbits/s\n[STDOUT RAW] total_size=83099648\n[STDOUT RAW] out_time_us=5200681958\n[STDOUT RAW] out_time_ms=5200681958\n[STDOUT RAW] out_time=01:26:40.681958\n[STDOUT RAW] dup_frames=0\n[STDOUT RAW] drop_frames=0\n[STDOUT RAW] speed= 194x\n[STDOUT RAW] progress=continue\n[STDERR RAW] size=   81152KiB time=01:26:40.68 bitrate= 127.8kbits/s speed= 194x\n[STDOUT RAW] bitrate= 127.6kbits/s\n[STDOUT RAW] total_size=84672512\n[STDOUT RAW] out_time_us=5307361958\n[STDOUT RAW] out_time_ms=5307361958\n[STDOUT RAW] out_time=01:28:27.361958\n[STDOUT RAW] dup_frames=0\n[STDOUT RAW] drop_frames=0\n[STDOUT RAW] speed= 194x\n[STDOUT RAW] progress=continue\n[STDERR RAW] size=   82688KiB time=01:28:27.36 bitrate= 127.6kbits/s speed= 194x\n[STDOUT RAW] bitrate= 127.8kbits/s\n[STDOUT RAW] total_size=86507520\n[STDOUT RAW] out_time_us=5413705958\n[STDOUT RAW] out_time_ms=5413705958\n[STDOUT RAW] out_time=01:30:13.705958\n[STDOUT RAW] dup_frames=0\n[STDOUT RAW] drop_frames=0\n[STDOUT RAW] speed= 194x\n[STDOUT RAW] progress=continue\n[STDERR RAW] size=   84480KiB time=01:30:13.70 bitrate= 127.8kbits/s speed= 194x\n[STDOUT RAW] bitrate= 127.7kbits/s\n[STDOUT RAW] total_size=88342528\n[STDOUT RAW] out_time_us=5532913958\n[STDOUT RAW] out_time_ms=5532913958\n[STDOUT RAW] out_time=01:32:12.913958\n[STDOUT RAW] dup_frames=0\n[STDOUT RAW] drop_frames=0\n[STDOUT RAW] speed= 195x\n[STDOUT RAW] progress=continue\n[STDERR RAW] size=   86272KiB time=01:32:12.91 bitrate= 127.7kbits/s speed= 195x\n[STDOUT RAW] bitrate= 127.8kbits/s\n[STDOUT RAW] total_size=90177536\n[STDOUT RAW] out_time_us=5644609958\n[STDOUT RAW] out_time_ms=5644609958\n[STDOUT RAW] out_time=01:34:04.609958\n[STDOUT RAW] dup_frames=0\n[STDOUT RAW] drop_frames=0\n[STDOUT RAW] speed= 195x\n[STDOUT RAW] progress=continue\n[STDERR RAW] size=   88064KiB time=01:34:04.60 bitrate= 127.8kbits/s speed= 195x\n[STDOUT RAW] bitrate= 127.6kbits/s\n[STDOUT RAW] total_size=91750400\n[STDOUT RAW] out_time_us=5750905958\n[STDOUT RAW] out_time_ms=5750905958\n[STDOUT RAW] out_time=01:35:50.905958\n[STDOUT RAW] dup_frames=0\n[STDOUT RAW] drop_frames=0\n[STDOUT RAW] speed= 196x\n[STDOUT RAW] progress=continue\n[STDERR RAW] size=   89600KiB time=01:35:50.90 bitrate= 127.6kbits/s speed= 196x\n[STDOUT RAW] bitrate= 127.8kbits/s\n[STDOUT RAW] total_size=93585408\n[STDOUT RAW] out_time_us=5860129958\n[STDOUT RAW] out_time_ms=5860129958\n[STDOUT RAW] out_time=01:37:40.129958\n[STDOUT RAW] dup_frames=0\n[STDOUT RAW] drop_frames=0\n[STDOUT RAW] speed= 196x\n[STDOUT RAW] progress=continue\n[STDERR RAW] size=   91392KiB time=01:37:40.12 bitrate= 127.8kbits/s speed= 196x\n[STDOUT RAW] bitrate= 127.7kbits/s\n[STDOUT RAW] total_size=95158272\n[STDOUT RAW] out_time_us=5961025958\n[STDOUT RAW] out_time_ms=5961025958\n[STDOUT RAW] out_time=01:39:21.025958\n[STDOUT RAW] dup_frames=0\n[STDOUT RAW] drop_frames=0\n[STDOUT RAW] speed= 196x\n[STDOUT RAW] progress=continue\n[STDERR RAW] size=   92928KiB time=01:39:21.02 bitrate= 127.7kbits/s speed= 196x\n[STDOUT RAW] bitrate= 127.9kbits/s\n[STDOUT RAW] total_size=96993280\n[STDOUT RAW] out_time_us=6067081958\n[STDOUT RAW] out_time_ms=6067081958\n[STDOUT RAW] out_time=01:41:07.081958\n[STDOUT RAW] dup_frames=0\n[STDOUT RAW] drop_frames=0\n[STDOUT RAW] speed= 196x\n[STDOUT RAW] progress=continue\n[STDERR RAW] size=   94720KiB time=01:41:07.08 bitrate= 127.9kbits/s speed= 196x\n[STDOUT RAW] bitrate= 128.0kbits/s\n[STDOUT RAW] total_size=98828288\n[STDOUT RAW] out_time_us=6177409958\n[STDOUT RAW] out_time_ms=6177409958\n[STDOUT RAW] out_time=01:42:57.409958\n[STDOUT RAW] dup_frames=0\n[STDOUT RAW] drop_frames=0\n[STDOUT RAW] speed= 196x\n[STDOUT RAW] progress=continue\n[STDERR RAW] size=   96512KiB time=01:42:57.40 bitrate= 128.0kbits/s speed= 196x\n[STDOUT RAW] bitrate= 127.8kbits/s\n[STDOUT RAW] total_size=100401152\n[STDOUT RAW] out_time_us=6286609958\n[STDOUT RAW] out_time_ms=6286609958\n[STDOUT RAW] out_time=01:44:46.609958\n[STDOUT RAW] dup_frames=0\n[STDOUT RAW] drop_frames=0\n[STDOUT RAW] speed= 197x\n[STDOUT RAW] progress=continue\n[STDERR RAW] size=   98048KiB time=01:44:46.60 bitrate= 127.8kbits/s speed= 197x\n[STDOUT RAW] bitrate= 128.0kbits/s\n[STDOUT RAW] total_size=102236160\n[STDOUT RAW] out_time_us=6391009958\n[STDOUT RAW] out_time_ms=6391009958\n[STDOUT RAW] out_time=01:46:31.009958\n[STDOUT RAW] dup_frames=0\n[STDOUT RAW] drop_frames=0\n[STDOUT RAW] speed= 197x\n[STDOUT RAW] progress=continue\n[STDERR RAW] size=   99840KiB time=01:46:31.00 bitrate= 128.0kbits/s speed= 197x\n[STDOUT RAW] bitrate= 127.8kbits/s\n[STDOUT RAW] total_size=103809024\n[STDOUT RAW] out_time_us=6500425958\n[STDOUT RAW] out_time_ms=6500425958\n[STDOUT RAW] out_time=01:48:20.425958\n[STDOUT RAW] dup_frames=0\n[STDOUT RAW] drop_frames=0\n[STDOUT RAW] speed= 197x\n[STDOUT RAW] progress=continue\n[STDERR RAW] size=  101376KiB time=01:48:20.42 bitrate= 127.8kbits/s speed= 197x\n[STDOUT RAW] bitrate= 127.9kbits/s\n[STDOUT RAW] total_size=105644032\n[STDOUT RAW] out_time_us=6606433958\n[STDOUT RAW] out_time_ms=6606433958\n[STDOUT RAW] out_time=01:50:06.433958\n[STDOUT RAW] dup_frames=0\n[STDOUT RAW] drop_frames=0\n[STDOUT RAW] speed= 197x\n[STDOUT RAW] progress=continue\n[STDERR RAW] size=  103168KiB time=01:50:06.43 bitrate= 127.9kbits/s speed= 197x\n[STDOUT RAW] bitrate= 127.8kbits/s\n[STDOUT RAW] total_size=107216896\n[STDOUT RAW] out_time_us=6713593958\n[STDOUT RAW] out_time_ms=6713593958\n[STDOUT RAW] out_time=01:51:53.593958\n[STDOUT RAW] dup_frames=0\n[STDOUT RAW] drop_frames=0\n[STDOUT RAW] speed= 197x\n[STDOUT RAW] progress=continue\n[STDERR RAW] size=  104704KiB time=01:51:53.59 bitrate= 127.8kbits/s speed= 197x\n[STDOUT RAW] bitrate= 127.8kbits/s\n[STDOUT RAW] total_size=109051904\n[STDOUT RAW] out_time_us=6826441958\n[STDOUT RAW] out_time_ms=6826441958\n[STDOUT RAW] out_time=01:53:46.441958\n[STDOUT RAW] dup_frames=0\n[STDOUT RAW] drop_frames=0\n[STDOUT RAW] speed= 198x\n[STDOUT RAW] progress=continue\n[STDERR RAW] size=  106496KiB time=01:53:46.44 bitrate= 127.8kbits/s speed= 198x\n[STDOUT RAW] bitrate= 127.9kbits/s\n[STDOUT RAW] total_size=110886912\n[STDOUT RAW] out_time_us=6935593958\n[STDOUT RAW] out_time_ms=6935593958\n[STDOUT RAW] out_time=01:55:35.593958\n[STDOUT RAW] dup_frames=0\n[STDOUT RAW] drop_frames=0\n[STDOUT RAW] speed= 198x\n[STDOUT RAW] progress=continue\n[STDERR RAW] size=  108288KiB time=01:55:35.59 bitrate= 127.9kbits/s speed= 198x\n[STDOUT RAW] bitrate= 127.7kbits/s\n[STDOUT RAW] total_size=112459776\n[STDOUT RAW] out_time_us=7045249958\n[STDOUT RAW] out_time_ms=7045249958\n[STDOUT RAW] out_time=01:57:25.249958\n[STDOUT RAW] dup_frames=0\n[STDOUT RAW] drop_frames=0\n[STDOUT RAW] speed= 198x\n[STDOUT RAW] progress=continue\n[STDERR RAW] size=  109824KiB time=01:57:25.24 bitrate= 127.7kbits/s speed= 198x\n[STDOUT RAW] bitrate= 127.7kbits/s\n[STDOUT RAW] total_size=114294784\n[STDOUT RAW] out_time_us=7157521958\n[STDOUT RAW] out_time_ms=7157521958\n[STDOUT RAW] out_time=01:59:17.521958\n[STDOUT RAW] dup_frames=0\n[STDOUT RAW] drop_frames=0\n[STDOUT RAW] speed= 198x\n[STDOUT RAW] progress=continue\n[STDERR RAW] size=  111616KiB time=01:59:17.52 bitrate= 127.7kbits/s speed= 198x\n[STDOUT RAW] bitrate= 127.7kbits/s\n[STDOUT RAW] total_size=115867648\n[STDOUT RAW] out_time_us=7257073958\n[STDOUT RAW] out_time_ms=7257073958\n[STDOUT RAW] out_time=02:00:57.073958\n[STDOUT RAW] dup_frames=0\n[STDOUT RAW] drop_frames=0\n[STDOUT RAW] speed= 198x\n[STDOUT RAW] progress=continue\n[STDERR RAW] size=  113152KiB time=02:00:57.07 bitrate= 127.7kbits/s speed= 198x\n[STDOUT RAW] bitrate= 127.9kbits/s\n[STDOUT RAW] total_size=117702656\n[STDOUT RAW] out_time_us=7359433958\n[STDOUT RAW] out_time_ms=7359433958\n[STDOUT RAW] out_time=02:02:39.433958\n[STDOUT RAW] dup_frames=0\n[STDOUT RAW] drop_frames=0\n[STDOUT RAW] speed= 198x\n[STDOUT RAW] progress=continue\n[STDERR RAW] size=  114944KiB time=02:02:39.43 bitrate= 127.9kbits/s speed= 198x\n[STDOUT RAW] bitrate= 128.0kbits/s\n[STDOUT RAW] total_size=119537664\n[STDOUT RAW] out_time_us=7472833958\n[STDOUT RAW] out_time_ms=7472833958\n[STDOUT RAW] out_time=02:04:32.833958\n[STDOUT RAW] dup_frames=0\n[STDOUT RAW] drop_frames=0\n[STDOUT RAW] speed= 199x\n[STDOUT RAW] progress=continue\n[STDERR RAW] size=  116736KiB time=02:04:32.83 bitrate= 128.0kbits/s speed= 199x\n[STDOUT RAW] bitrate= 127.8kbits/s\n[STDOUT RAW] total_size=121110528\n[STDOUT RAW] out_time_us=7584025958\n[STDOUT RAW] out_time_ms=7584025958\n[STDOUT RAW] out_time=02:06:24.025958\n[STDOUT RAW] dup_frames=0\n[STDOUT RAW] drop_frames=0\n[STDOUT RAW] speed= 199x\n[STDOUT RAW] progress=continue\n[STDERR RAW] size=  118272KiB time=02:06:24.02 bitrate= 127.8kbits/s speed= 199x\n[STDOUT RAW] bitrate= 127.9kbits/s\n[STDOUT RAW] total_size=122945536\n[STDOUT RAW] out_time_us=7689841958\n[STDOUT RAW] out_time_ms=7689841958\n[STDOUT RAW] out_time=02:08:09.841958\n[STDOUT RAW] dup_frames=0\n[STDOUT RAW] drop_frames=0\n[STDOUT RAW] speed= 199x\n[STDOUT RAW] progress=continue\n[STDERR RAW] size=  120064KiB time=02:08:09.84 bitrate= 127.9kbits/s speed= 199x\n[STDOUT RAW] bitrate= 128.0kbits/s\n[STDOUT RAW] total_size=124780544\n[STDOUT RAW] out_time_us=7801033958\n[STDOUT RAW] out_time_ms=7801033958\n[STDOUT RAW] out_time=02:10:01.033958\n[STDOUT RAW] dup_frames=0\n[STDOUT RAW] drop_frames=0\n[STDOUT RAW] speed= 199x\n[STDOUT RAW] progress=continue\n[STDERR RAW] size=  121856KiB time=02:10:01.03 bitrate= 128.0kbits/s speed= 199x\n[STDOUT RAW] bitrate= 127.8kbits/s\n[STDOUT RAW] total_size=126353408\n[STDOUT RAW] out_time_us=7909801958\n[STDOUT RAW] out_time_ms=7909801958\n[STDOUT RAW] out_time=02:11:49.801958\n[STDOUT RAW] dup_frames=0\n[STDOUT RAW] drop_frames=0\n[STDOUT RAW] speed= 199x\n[STDOUT RAW] progress=continue\n[STDERR RAW] size=  123392KiB time=02:11:49.80 bitrate= 127.8kbits/s speed= 199x\n[STDOUT RAW] bitrate= 127.8kbits/s\n[STDOUT RAW] total_size=128188416\n[STDOUT RAW] out_time_us=8026153958\n[STDOUT RAW] out_time_ms=8026153958\n[STDOUT RAW] out_time=02:13:46.153958\n[STDOUT RAW] dup_frames=0\n[STDOUT RAW] drop_frames=0\n[STDOUT RAW] speed=200x\n[STDOUT RAW] progress=continue\n[STDERR RAW] size=  125184KiB time=02:13:46.15 bitrate= 127.8kbits/s speed=200x\n[STDOUT RAW] bitrate= 127.9kbits/s\n[STDOUT RAW] total_size=130023424\n[STDOUT RAW] out_time_us=8134153958\n[STDOUT RAW] out_time_ms=8134153958\n[STDOUT RAW] out_time=02:15:34.153958\n[STDOUT RAW] dup_frames=0\n[STDOUT RAW] drop_frames=0\n[STDOUT RAW] speed=200x\n[STDOUT RAW] progress=continue\n[STDERR RAW] size=  126976KiB time=02:15:34.15 bitrate= 127.9kbits/s speed=200x\n[STDOUT RAW] bitrate= 127.9kbits/s\n[STDOUT RAW] total_size=131858432\n[STDOUT RAW] out_time_us=8244505958\n[STDOUT RAW] out_time_ms=8244505958\n[STDOUT RAW] out_time=02:17:24.505958\n[STDOUT RAW] dup_frames=0\n[STDOUT RAW] drop_frames=0\n[STDOUT RAW] speed=200x\n[STDOUT RAW] progress=continue\n[STDERR RAW] size=  128768KiB time=02:17:24.50 bitrate= 127.9kbits/s speed=200x\n[STDOUT RAW] bitrate= 127.7kbits/s\n[STDOUT RAW] total_size=133431296\n[STDOUT RAW] out_time_us=8355961958\n[STDOUT RAW] out_time_ms=8355961958\n[STDOUT RAW] out_time=02:19:15.961958\n[STDOUT RAW] dup_frames=0\n[STDOUT RAW] drop_frames=0\n[STDOUT RAW] speed=200x\n[STDOUT RAW] progress=continue\n[STDERR RAW] size=  130304KiB time=02:19:15.96 bitrate= 127.7kbits/s speed=200x\n[STDOUT RAW] bitrate= 127.9kbits/s\n[STDOUT RAW] total_size=135266304\n[STDOUT RAW] out_time_us=8461993958\n[STDOUT RAW] out_time_ms=8461993958\n[STDOUT RAW] out_time=02:21:01.993958\n[STDOUT RAW] dup_frames=0\n[STDOUT RAW] drop_frames=0\n[STDOUT RAW] speed=200x\n[STDOUT RAW] progress=continue\n[STDERR RAW] size=  132096KiB time=02:21:01.99 bitrate= 127.9kbits/s speed=200x\n[STDOUT RAW] bitrate= 127.8kbits/s\n[STDOUT RAW] total_size=136839168\n[STDOUT RAW] out_time_us=8568961958\n[STDOUT RAW] out_time_ms=8568961958\n[STDOUT RAW] out_time=02:22:48.961958\n[STDOUT RAW] dup_frames=0\n[STDOUT RAW] drop_frames=0\n[STDOUT RAW] speed=200x\n[STDOUT RAW] progress=continue\n[STDERR RAW] size=  133632KiB time=02:22:48.96 bitrate= 127.8kbits/s speed=200x\n[STDOUT RAW] bitrate= 127.9kbits/s\n[STDOUT RAW] total_size=138674176\n[STDOUT RAW] out_time_us=8674897958\n[STDOUT RAW] out_time_ms=8674897958\n[STDOUT RAW] out_time=02:24:34.897958\n[STDOUT RAW] dup_frames=0\n[STDOUT RAW] drop_frames=0\n[STDOUT RAW] speed=200x\n[STDOUT RAW] progress=continue\n[STDERR RAW] size=  135424KiB time=02:24:34.89 bitrate= 127.9kbits/s speed=200x\n[STDOUT RAW] bitrate= 127.8kbits/s\n[STDOUT RAW] total_size=140509184\n[STDOUT RAW] out_time_us=8792857958\n[STDOUT RAW] out_time_ms=8792857958\n[STDOUT RAW] out_time=02:26:32.857958\n[STDOUT RAW] dup_frames=0\n[STDOUT RAW] drop_frames=0\n[STDOUT RAW] speed= 201x\n[STDOUT RAW] progress=continue\n[STDERR RAW] size=  137216KiB time=02:26:32.85 bitrate= 127.8kbits/s speed= 201x\n[STDOUT RAW] bitrate= 127.8kbits/s\n[STDOUT RAW] total_size=142082048\n[STDOUT RAW] out_time_us=8891713958\n[STDOUT RAW] out_time_ms=8891713958\n[STDOUT RAW] out_time=02:28:11.713958\n[STDOUT RAW] dup_frames=0\n[STDOUT RAW] drop_frames=0\n[STDOUT RAW] speed= 201x\n[STDOUT RAW] progress=continue\n[STDERR RAW] size=  138752KiB time=02:28:11.71 bitrate= 127.8kbits/s speed= 201x\n[STDOUT RAW] bitrate= 127.8kbits/s\n[STDOUT RAW] total_size=143654912\n[STDOUT RAW] out_time_us=8993521958\n[STDOUT RAW] out_time_ms=8993521958\n[STDOUT RAW] out_time=02:29:53.521958\n[STDOUT RAW] dup_frames=0\n[STDOUT RAW] drop_frames=0\n[STDOUT RAW] speed= 201x\n[STDOUT RAW] progress=continue\n[STDERR RAW] size=  140288KiB time=02:29:53.52 bitrate= 127.8kbits/s speed= 201x\n[STDOUT RAW] bitrate= 127.8kbits/s\n[STDOUT RAW] total_size=145489920\n[STDOUT RAW] out_time_us=9105865958\n[STDOUT RAW] out_time_ms=9105865958\n[STDOUT RAW] out_time=02:31:45.865958\n[STDOUT RAW] dup_frames=0\n[STDOUT RAW] drop_frames=0\n[STDOUT RAW] speed= 201x\n[STDOUT RAW] progress=continue\n[STDERR RAW] size=  142080KiB time=02:31:45.86 bitrate= 127.8kbits/s speed= 201x\n[STDOUT RAW] bitrate= 128.0kbits/s\n[STDOUT RAW] total_size=147324928\n[STDOUT RAW] out_time_us=9208105958\n[STDOUT RAW] out_time_ms=9208105958\n[STDOUT RAW] out_time=02:33:28.105958\n[STDOUT RAW] dup_frames=0\n[STDOUT RAW] drop_frames=0\n[STDOUT RAW] speed= 201x\n[STDOUT RAW] progress=continue\n[STDERR RAW] size=  143872KiB time=02:33:28.10 bitrate= 128.0kbits/s speed= 201x\n[STDOUT RAW] bitrate= 127.9kbits/s\n[STDOUT RAW] total_size=148897792\n[STDOUT RAW] out_time_us=9315697958\n[STDOUT RAW] out_time_ms=9315697958\n[STDOUT RAW] out_time=02:35:15.697958\n[STDOUT RAW] dup_frames=0\n[STDOUT RAW] drop_frames=0\n[STDOUT RAW] speed= 201x\n[STDOUT RAW] progress=continue\n[STDERR RAW] size=  145408KiB time=02:35:15.69 bitrate= 127.9kbits/s speed= 201x\n[STDOUT RAW] bitrate= 128.0kbits/s\n[STDOUT RAW] total_size=150470656\n[STDOUT RAW] out_time_us=9405505958\n[STDOUT RAW] out_time_ms=9405505958\n[STDOUT RAW] out_time=02:36:45.505958\n[STDOUT RAW] dup_frames=0\n[STDOUT RAW] drop_frames=0\n[STDOUT RAW] speed=200x\n[STDOUT RAW] progress=continue\n[STDERR RAW] size=  146944KiB time=02:36:45.50 bitrate= 128.0kbits/s speed=200x\n[STDOUT RAW] bitrate= 127.9kbits/s\n[STDOUT RAW] total_size=152043520\n[STDOUT RAW] out_time_us=9506929958\n[STDOUT RAW] out_time_ms=9506929958\n[STDOUT RAW] out_time=02:38:26.929958\n[STDOUT RAW] dup_frames=0\n[STDOUT RAW] drop_frames=0\n[STDOUT RAW] speed=200x\n[STDOUT RAW] progress=continue\n[STDERR RAW] size=  148480KiB time=02:38:26.92 bitrate= 127.9kbits/s speed=200x\n[STDOUT RAW] bitrate= 127.8kbits/s\n[STDOUT RAW] total_size=153616384\n[STDOUT RAW] out_time_us=9614161958\n[STDOUT RAW] out_time_ms=9614161958\n[STDOUT RAW] out_time=02:40:14.161958\n[STDOUT RAW] dup_frames=0\n[STDOUT RAW] drop_frames=0\n[STDOUT RAW] speed=200x\n[STDOUT RAW] progress=continue\n[STDERR RAW] size=  150016KiB time=02:40:14.16 bitrate= 127.8kbits/s speed=200x\n[STDOUT RAW] bitrate= 127.9kbits/s\n[STDOUT RAW] total_size=155451392\n[STDOUT RAW] out_time_us=9720721958\n[STDOUT RAW] out_time_ms=9720721958\n[STDOUT RAW] out_time=02:42:00.721958\n[STDOUT RAW] dup_frames=0\n[STDOUT RAW] drop_frames=0\n[STDOUT RAW] speed= 201x\n[STDOUT RAW] progress=continue\n[STDERR RAW] size=  151808KiB time=02:42:00.72 bitrate= 127.9kbits/s speed= 201x\n[STDOUT RAW] bitrate= 128.0kbits/s\n[STDOUT RAW] total_size=157024256\n[STDOUT RAW] out_time_us=9814321958\n[STDOUT RAW] out_time_ms=9814321958\n[STDOUT RAW] out_time=02:43:34.321958\n[STDOUT RAW] dup_frames=0\n[STDOUT RAW] drop_frames=0\n[STDOUT RAW] speed=200x\n[STDOUT RAW] progress=continue\n[STDERR RAW] size=  153344KiB time=02:43:34.32 bitrate= 128.0kbits/s speed=200x\n[STDOUT RAW] bitrate= 127.9kbits/s\n[STDOUT RAW] total_size=158597120\n[STDOUT RAW] out_time_us=9917593958\n[STDOUT RAW] out_time_ms=9917593958\n[STDOUT RAW] out_time=02:45:17.593958\n[STDOUT RAW] dup_frames=0\n[STDOUT RAW] drop_frames=0\n[STDOUT RAW] speed=200x\n[STDOUT RAW] progress=continue\n[STDERR RAW] size=  154880KiB time=02:45:17.59 bitrate= 127.9kbits/s speed=200x\n[STDOUT RAW] bitrate= 127.8kbits/s\n[STDOUT RAW] total_size=160169984\n[STDOUT RAW] out_time_us=10024201958\n[STDOUT RAW] out_time_ms=10024201958\n[STDOUT RAW] out_time=02:47:04.201958\n[STDOUT RAW] dup_frames=0\n[STDOUT RAW] drop_frames=0\n[STDOUT RAW] speed=200x\n[STDOUT RAW] progress=continue\n[STDERR RAW] size=  156416KiB time=02:47:04.20 bitrate= 127.8kbits/s speed=200x\n[STDOUT RAW] bitrate= 127.8kbits/s\n[STDOUT RAW] total_size=161742848\n[STDOUT RAW] out_time_us=10125433958\n[STDOUT RAW] out_time_ms=10125433958\n[STDOUT RAW] out_time=02:48:45.433958\n[STDOUT RAW] dup_frames=0\n[STDOUT RAW] drop_frames=0\n[STDOUT RAW] speed=200x\n[STDOUT RAW] progress=continue\n[STDOUT RAW] bitrate= 127.8kbits/s\n[STDOUT RAW] total_size=163315712\n[STDOUT RAW] out_time_us=10220305958\n[STDOUT RAW] out_time_ms=10220305958\n[STDERR RAW] size=  157952KiB time=02:48:45.43 bitrate= 127.8kbits/s speed=200x\n[STDOUT RAW] out_time=02:50:20.305958\n[STDOUT RAW] dup_frames=0\n[STDOUT RAW] drop_frames=0\n[STDOUT RAW] speed=200x\n[STDOUT RAW] progress=continue\n[STDERR RAW] size=  159488KiB time=02:50:20.30 bitrate= 127.8kbits/s speed=200x\n[STDOUT RAW] bitrate= 127.9kbits/s\n[STDOUT RAW] total_size=164888576\n[STDOUT RAW] out_time_us=10316737958\n[STDOUT RAW] out_time_ms=10316737958\n[STDOUT RAW] out_time=02:51:56.737958\n[STDOUT RAW] dup_frames=0\n[STDOUT RAW] drop_frames=0\n[STDOUT RAW] speed=200x\n[STDOUT RAW] progress=continue\n[STDERR RAW] size=  161024KiB time=02:51:56.73 bitrate= 127.9kbits/s speed=200x\n[STDOUT RAW] bitrate= 127.9kbits/s\n[STDOUT RAW] total_size=166461440\n[STDOUT RAW] out_time_us=10413889958\n[STDOUT RAW] out_time_ms=10413889958\n[STDOUT RAW] out_time=02:53:33.889958\n[STDOUT RAW] dup_frames=0\n[STDOUT RAW] drop_frames=0\n[STDOUT RAW] speed=200x\n[STDOUT RAW] progress=continue\n[STDERR RAW] size=  162560KiB time=02:53:33.88 bitrate= 127.9kbits/s speed=200x\n[STDOUT RAW] bitrate= 127.9kbits/s\n[STDOUT RAW] total_size=168034304\n[STDOUT RAW] out_time_us=10511761958\n[STDOUT RAW] out_time_ms=10511761958\n[STDOUT RAW] out_time=02:55:11.761958\n[STDOUT RAW] dup_frames=0\n[STDOUT RAW] drop_frames=0\n[STDOUT RAW] speed=200x\n[STDOUT RAW] progress=continue\n[STDERR RAW] size=  164096KiB time=02:55:11.76 bitrate= 127.9kbits/s speed=200x\n[STDOUT RAW] bitrate= 127.8kbits/s\n[STDOUT RAW] total_size=169607168\n[STDOUT RAW] out_time_us=10614625958\n[STDOUT RAW] out_time_ms=10614625958\n[STDOUT RAW] out_time=02:56:54.625958\n[STDOUT RAW] dup_frames=0\n[STDOUT RAW] drop_frames=0\n[STDOUT RAW] speed=200x\n[STDOUT RAW] progress=continue\n[STDOUT RAW] bitrate= 128.0kbits/s\n[STDOUT RAW] total_size=171180032\n[STDERR RAW] size=  165632KiB time=02:56:54.62 bitrate= 127.8kbits/s speed=200x\n[STDOUT RAW] out_time_us=10701073958\n[STDOUT RAW] out_time_ms=10701073958\n[STDOUT RAW] out_time=02:58:21.073958\n[STDOUT RAW] dup_frames=0\n[STDOUT RAW] drop_frames=0\n[STDOUT RAW] speed=200x\n[STDOUT RAW] progress=continue\n[STDERR RAW] size=  167168KiB time=02:58:21.07 bitrate= 128.0kbits/s speed=200x\n[STDOUT RAW] bitrate= 128.0kbits/s\n[STDOUT RAW] total_size=172752896\n[STDOUT RAW] out_time_us=10797529958\n[STDOUT RAW] out_time_ms=10797529958\n[STDOUT RAW] out_time=02:59:57.529958\n[STDOUT RAW] dup_frames=0\n[STDOUT RAW] drop_frames=0\n[STDOUT RAW] speed= 199x\n[STDOUT RAW] progress=continue\n[STDERR RAW] size=  168704KiB time=02:59:57.52 bitrate= 128.0kbits/s speed= 199x\n[STDOUT RAW] bitrate= 127.8kbits/s\n[STDOUT RAW] total_size=174063616\n[STDOUT RAW] out_time_us=10894993958\n[STDOUT RAW] out_time_ms=10894993958\n[STDOUT RAW] out_time=03:01:34.993958\n[STDOUT RAW] dup_frames=0\n[STDOUT RAW] drop_frames=0\n[STDOUT RAW] speed= 199x\n[STDOUT RAW] progress=continue\n[STDERR RAW] size=  169984KiB time=03:01:34.99 bitrate= 127.8kbits/s speed= 199x\n[STDOUT RAW] bitrate= 127.8kbits/s\n[STDOUT RAW] total_size=175374336\n[STDOUT RAW] out_time_us=10977409958\n[STDOUT RAW] out_time_ms=10977409958\n[STDOUT RAW] out_time=03:02:57.409958\n[STDOUT RAW] dup_frames=0\n[STDOUT RAW] drop_frames=0\n[STDOUT RAW] speed= 199x\n[STDOUT RAW] progress=continue\n[STDERR RAW] size=  171264KiB time=03:02:57.40 bitrate= 127.8kbits/s speed= 199x\n[STDOUT RAW] bitrate= 128.0kbits/s\n[STDOUT RAW] total_size=177209344\n[STDOUT RAW] out_time_us=11078377958\n[STDOUT RAW] out_time_ms=11078377958\n[STDOUT RAW] out_time=03:04:38.377958\n[STDOUT RAW] dup_frames=0\n[STDOUT RAW] drop_frames=0\n[STDOUT RAW] speed= 199x\n[STDOUT RAW] progress=continue\n[STDERR RAW] size=  173056KiB time=03:04:38.37 bitrate= 128.0kbits/s speed= 199x\n[STDOUT RAW] bitrate= 128.0kbits/s\n[STDOUT RAW] total_size=178782208\n[STDOUT RAW] out_time_us=11176825958\n[STDOUT RAW] out_time_ms=11176825958\n[STDOUT RAW] out_time=03:06:16.825958\n[STDOUT RAW] dup_frames=0\n[STDOUT RAW] drop_frames=0\n[STDOUT RAW] speed= 199x\n[STDOUT RAW] progress=continue\n[STDERR RAW] size=  174592KiB time=03:06:16.82 bitrate= 128.0kbits/s speed= 199x\n[STDOUT RAW] bitrate= 128.0kbits/s\n[STDOUT RAW] total_size=180355072\n[STDOUT RAW] out_time_us=11273977958\n[STDOUT RAW] out_time_ms=11273977958\n[STDOUT RAW] out_time=03:07:53.977958\n[STDOUT RAW] dup_frames=0\n[STDOUT RAW] drop_frames=0\n[STDOUT RAW] speed= 199x\n[STDOUT RAW] progress=continue\n[STDERR RAW] size=  176128KiB time=03:07:53.97 bitrate= 128.0kbits/s speed= 199x\n[STDOUT RAW] bitrate= 127.8kbits/s\n[STDOUT RAW] total_size=181665792\n[STDOUT RAW] out_time_us=11370625958\n[STDOUT RAW] out_time_ms=11370625958\n[STDOUT RAW] out_time=03:09:30.625958\n[STDOUT RAW] dup_frames=0\n[STDOUT RAW] drop_frames=0\n[STDOUT RAW] speed= 199x\n[STDOUT RAW] progress=continue\n[STDERR RAW] size=  177408KiB time=03:09:30.62 bitrate= 127.8kbits/s speed= 199x\n[STDOUT RAW] bitrate= 127.8kbits/s\n[STDOUT RAW] total_size=183238656\n[STDOUT RAW] out_time_us=11468929958\n[STDOUT RAW] out_time_ms=11468929958\n[STDOUT RAW] out_time=03:11:08.929958\n[STDOUT RAW] dup_frames=0\n[STDOUT RAW] drop_frames=0\n[STDOUT RAW] speed= 199x\n[STDOUT RAW] progress=continue\n[STDERR RAW] size=  178944KiB time=03:11:08.92 bitrate= 127.8kbits/s speed= 199x\n[STDOUT RAW] bitrate= 127.9kbits/s\n[STDOUT RAW] total_size=185073664\n[STDOUT RAW] out_time_us=11575969958\n[STDOUT RAW] out_time_ms=11575969958\n[STDOUT RAW] out_time=03:12:55.969958\n[STDOUT RAW] dup_frames=0\n[STDOUT RAW] drop_frames=0\n[STDOUT RAW] speed= 199x\n[STDOUT RAW] progress=continue\n[STDERR RAW] size=  180736KiB time=03:12:55.96 bitrate= 127.9kbits/s speed= 199x\n[STDOUT RAW] bitrate= 127.9kbits/s\n[STDOUT RAW] total_size=186646528\n[STDOUT RAW] out_time_us=11678185958\n[STDOUT RAW] out_time_ms=11678185958\n[STDOUT RAW] out_time=03:14:38.185958\n[STDOUT RAW] dup_frames=0\n[STDOUT RAW] drop_frames=0\n[STDOUT RAW] speed= 199x\n[STDOUT RAW] progress=continue\n[STDERR RAW] size=  182272KiB time=03:14:38.18 bitrate= 127.9kbits/s speed= 199x\n[STDOUT RAW] bitrate= 127.8kbits/s\n[STDOUT RAW] total_size=188481536\n[STDOUT RAW] out_time_us=11795281958\n[STDOUT RAW] out_time_ms=11795281958\n[STDOUT RAW] out_time=03:16:35.281958\n[STDOUT RAW] dup_frames=0\n[STDOUT RAW] drop_frames=0\n[STDOUT RAW] speed= 199x\n[STDOUT RAW] progress=continue\n[STDERR RAW] size=  184064KiB time=03:16:35.28 bitrate= 127.8kbits/s speed= 199x\n[STDOUT RAW] bitrate= 127.8kbits/s\n[STDOUT RAW] total_size=190054400\n[STDOUT RAW] out_time_us=11894905958\n[STDOUT RAW] out_time_ms=11894905958\n[STDOUT RAW] out_time=03:18:14.905958\n[STDOUT RAW] dup_frames=0\n[STDOUT RAW] drop_frames=0\n[STDOUT RAW] speed= 199x\n[STDOUT RAW] progress=continue\n[STDERR RAW] size=  185600KiB time=03:18:14.90 bitrate= 127.8kbits/s speed= 199x\n[STDOUT RAW] bitrate= 128.0kbits/s\n[STDOUT RAW] total_size=191889408\n[STDOUT RAW] out_time_us=11995681958\n[STDOUT RAW] out_time_ms=11995681958\n[STDOUT RAW] out_time=03:19:55.681958\n[STDOUT RAW] dup_frames=0\n[STDOUT RAW] drop_frames=0\n[STDOUT RAW] speed= 199x\n[STDOUT RAW] progress=continue\n[STDERR RAW] size=  187392KiB time=03:19:55.68 bitrate= 128.0kbits/s speed= 199x\n[STDOUT RAW] bitrate= 127.9kbits/s\n[STDOUT RAW] total_size=193462272\n[STDOUT RAW] out_time_us=12104065958\n[STDOUT RAW] out_time_ms=12104065958\n[STDOUT RAW] out_time=03:21:44.065958\n[STDOUT RAW] dup_frames=0\n[STDOUT RAW] drop_frames=0\n[STDOUT RAW] speed= 199x\n[STDOUT RAW] progress=continue\n[STDERR RAW] size=  188928KiB time=03:21:44.06 bitrate= 127.9kbits/s speed= 199x\n[STDOUT RAW] bitrate= 127.9kbits/s\n[STDOUT RAW] total_size=195297280\n[STDOUT RAW] out_time_us=12218761958\n[STDOUT RAW] out_time_ms=12218761958\n[STDOUT RAW] out_time=03:23:38.761958\n[STDOUT RAW] dup_frames=0\n[STDOUT RAW] drop_frames=0\n[STDOUT RAW] speed= 199x\n[STDOUT RAW] progress=continue\n[STDERR RAW] size=  190720KiB time=03:23:38.76 bitrate= 127.9kbits/s speed= 199x\n[STDOUT RAW] bitrate= 128.0kbits/s\n[STDOUT RAW] total_size=197132288\n[STDOUT RAW] out_time_us=12321769958\n[STDOUT RAW] out_time_ms=12321769958\n[STDOUT RAW] out_time=03:25:21.769958\n[STDOUT RAW] dup_frames=0\n[STDOUT RAW] drop_frames=0\n[STDOUT RAW] speed= 199x\n[STDOUT RAW] progress=continue\n[STDERR RAW] size=  192512KiB time=03:25:21.76 bitrate= 128.0kbits/s speed= 199x\n[STDOUT RAW] bitrate= 128.0kbits/s\n[STDOUT RAW] total_size=198705152\n[STDOUT RAW] out_time_us=12419209958\n[STDOUT RAW] out_time_ms=12419209958\n[STDOUT RAW] out_time=03:26:59.209958\n[STDOUT RAW] dup_frames=0\n[STDOUT RAW] drop_frames=0\n[STDOUT RAW] speed= 199x\n[STDOUT RAW] progress=continue\n[STDERR RAW] size=  194048KiB time=03:26:59.20 bitrate= 128.0kbits/s speed= 199x\n[STDOUT RAW] bitrate= 127.8kbits/s\n[STDOUT RAW] total_size=200015872\n[STDOUT RAW] out_time_us=12517513958\n[STDOUT RAW] out_time_ms=12517513958\n[STDOUT RAW] out_time=03:28:37.513958\n[STDOUT RAW] dup_frames=0\n[STDOUT RAW] drop_frames=0\n[STDOUT RAW] speed= 199x\n[STDOUT RAW] progress=continue\n[STDERR RAW] size=  195328KiB time=03:28:37.51 bitrate= 127.8kbits/s speed= 199x\n[STDOUT RAW] bitrate= 127.8kbits/s\n[STDOUT RAW] total_size=201588736\n[STDOUT RAW] out_time_us=12615817958\n[STDOUT RAW] out_time_ms=12615817958\n[STDOUT RAW] out_time=03:30:15.817958\n[STDOUT RAW] dup_frames=0\n[STDOUT RAW] drop_frames=0\n[STDOUT RAW] speed= 199x\n[STDOUT RAW] progress=continue\n[STDERR RAW] size=  196864KiB time=03:30:15.81 bitrate= 127.8kbits/s speed= 199x\n[STDOUT RAW] bitrate= 127.8kbits/s\n[STDOUT RAW] total_size=203423744\n[STDOUT RAW] out_time_us=12728953958\n[STDOUT RAW] out_time_ms=12728953958\n[STDOUT RAW] out_time=03:32:08.953958\n[STDOUT RAW] dup_frames=0\n[STDOUT RAW] drop_frames=0\n[STDOUT RAW] speed= 199x\n[STDOUT RAW] progress=continue\n[STDERR RAW] size=  198656KiB time=03:32:08.95 bitrate= 127.8kbits/s speed= 199x\n[STDOUT RAW] bitrate= 127.9kbits/s\n[STDOUT RAW] total_size=205258752\n[STDOUT RAW] out_time_us=12836569958\n[STDOUT RAW] out_time_ms=12836569958\n[STDOUT RAW] out_time=03:33:56.569958\n[STDOUT RAW] dup_frames=0\n[STDOUT RAW] drop_frames=0\n[STDOUT RAW] speed= 199x\n[STDOUT RAW] progress=continue\n[STDERR RAW] size=  200448KiB time=03:33:56.56 bitrate= 127.9kbits/s speed= 199x\n[STDOUT RAW] bitrate= 128.0kbits/s\n[STDOUT RAW] total_size=207093760\n[STDOUT RAW] out_time_us=12946801958\n[STDOUT RAW] out_time_ms=12946801958\n[STDOUT RAW] out_time=03:35:46.801958\n[STDOUT RAW] dup_frames=0\n[STDOUT RAW] drop_frames=0\n[STDOUT RAW] speed= 199x\n[STDOUT RAW] progress=continue\n[STDERR RAW] size=  202240KiB time=03:35:46.80 bitrate= 128.0kbits/s speed= 199x\n[STDOUT RAW] bitrate= 127.9kbits/s\n[STDOUT RAW] total_size=208666624\n[STDOUT RAW] out_time_us=13053529958\n[STDOUT RAW] out_time_ms=13053529958\n[STDOUT RAW] out_time=03:37:33.529958\n[STDOUT RAW] dup_frames=0\n[STDOUT RAW] drop_frames=0\n[STDOUT RAW] speed= 199x\n[STDOUT RAW] progress=continue\n[STDERR RAW] size=  203776KiB time=03:37:33.52 bitrate= 127.9kbits/s speed= 199x\n[STDOUT RAW] bitrate= 127.9kbits/s\n[STDOUT RAW] total_size=210239488\n[STDOUT RAW] out_time_us=13154857958\n[STDOUT RAW] out_time_ms=13154857958\n[STDOUT RAW] out_time=03:39:14.857958\n[STDOUT RAW] dup_frames=0\n[STDOUT RAW] drop_frames=0\n[STDOUT RAW] speed= 199x\n[STDOUT RAW] progress=continue\n[STDERR RAW] size=  205312KiB time=03:39:14.85 bitrate= 127.9kbits/s speed= 199x\n[STDOUT RAW] bitrate= 127.8kbits/s\n[STDOUT RAW] total_size=211812352\n[STDOUT RAW] out_time_us=13254793958\n[STDOUT RAW] out_time_ms=13254793958\n[STDOUT RAW] out_time=03:40:54.793958\n[STDOUT RAW] dup_frames=0\n[STDOUT RAW] drop_frames=0\n[STDOUT RAW] speed= 199x\n[STDOUT RAW] progress=continue\n[STDERR RAW] size=  206848KiB time=03:40:54.79 bitrate= 127.8kbits/s speed= 199x\n[STDOUT RAW] bitrate= 127.8kbits/s\n[STDOUT RAW] total_size=213385216\n[STDOUT RAW] out_time_us=13353097958\n[STDOUT RAW] out_time_ms=13353097958\n[STDOUT RAW] out_time=03:42:33.097958\n[STDOUT RAW] dup_frames=0\n[STDOUT RAW] drop_frames=0\n[STDOUT RAW] speed= 199x\n[STDOUT RAW] progress=continue\n[STDERR RAW] size=  208384KiB time=03:42:33.09 bitrate= 127.8kbits/s speed= 199x\n[STDOUT RAW] bitrate= 127.9kbits/s\n[STDOUT RAW] total_size=214958080\n[STDOUT RAW] out_time_us=13449577958\n[STDOUT RAW] out_time_ms=13449577958\n[STDOUT RAW] out_time=03:44:09.577958\n[STDOUT RAW] dup_frames=0\n[STDOUT RAW] drop_frames=0\n[STDOUT RAW] speed= 199x\n[STDOUT RAW] progress=continue\n[STDERR RAW] size=  209920KiB time=03:44:09.57 bitrate= 127.9kbits/s speed= 199x\n[STDOUT RAW] bitrate= 127.9kbits/s\n[STDOUT RAW] total_size=216530944\n[STDOUT RAW] out_time_us=13547161958\n[STDOUT RAW] out_time_ms=13547161958\n[STDOUT RAW] out_time=03:45:47.161958\n[STDOUT RAW] dup_frames=0\n[STDOUT RAW] drop_frames=0\n[STDOUT RAW] speed= 199x\n[STDOUT RAW] progress=continue\n[STDERR RAW] size=  211456KiB time=03:45:47.16 bitrate= 127.9kbits/s speed= 199x\n[STDOUT RAW] bitrate= 127.9kbits/s\n[STDOUT RAW] total_size=218365952\n[STDOUT RAW] out_time_us=13653865958\n[STDOUT RAW] out_time_ms=13653865958\n[STDOUT RAW] out_time=03:47:33.865958\n[STDOUT RAW] dup_frames=0\n[STDOUT RAW] drop_frames=0\n[STDOUT RAW] speed= 199x\n[STDOUT RAW] progress=continue\n[STDERR RAW] size=  213248KiB time=03:47:33.86 bitrate= 127.9kbits/s speed= 199x\n[STDOUT RAW] bitrate= 128.0kbits/s\n[STDOUT RAW] total_size=220200960\n[STDOUT RAW] out_time_us=13764937958\n[STDOUT RAW] out_time_ms=13764937958\n[STDOUT RAW] out_time=03:49:24.937958\n[STDOUT RAW] dup_frames=0\n[STDOUT RAW] drop_frames=0\n[STDOUT RAW] speed= 199x\n[STDOUT RAW] progress=continue\n[STDERR RAW] size=  215040KiB time=03:49:24.93 bitrate= 128.0kbits/s speed= 199x\n[STDOUT RAW] bitrate= 128.0kbits/s\n[STDOUT RAW] total_size=222035968\n[STDOUT RAW] out_time_us=13880569958\n[STDOUT RAW] out_time_ms=13880569958\n[STDOUT RAW] out_time=03:51:20.569958\n[STDOUT RAW] dup_frames=0\n[STDOUT RAW] drop_frames=0\n[STDOUT RAW] speed= 199x\n[STDOUT RAW] progress=continue\n[STDERR RAW] size=  216832KiB time=03:51:20.56 bitrate= 128.0kbits/s speed= 199x\n[STDOUT RAW] bitrate= 128.0kbits/s\n[STDOUT RAW] total_size=223870976\n[STDOUT RAW] out_time_us=13993945958\n[STDOUT RAW] out_time_ms=13993945958\n[STDOUT RAW] out_time=03:53:13.945958\n[STDOUT RAW] dup_frames=0\n[STDOUT RAW] drop_frames=0\n[STDOUT RAW] speed=200x\n[STDOUT RAW] progress=continue\n[STDERR RAW] size=  218624KiB time=03:53:13.94 bitrate= 128.0kbits/s speed=200x\n[STDOUT RAW] bitrate= 127.9kbits/s\n[STDOUT RAW] total_size=225443840\n[STDOUT RAW] out_time_us=14096161958\n[STDOUT RAW] out_time_ms=14096161958\n[STDOUT RAW] out_time=03:54:56.161958\n[STDOUT RAW] dup_frames=0\n[STDOUT RAW] drop_frames=0\n[STDOUT RAW] speed=200x\n[STDOUT RAW] progress=continue\n[STDERR RAW] size=  220160KiB time=03:54:56.16 bitrate= 127.9kbits/s speed=200x\n[STDOUT RAW] bitrate= 127.9kbits/s\n[STDOUT RAW] total_size=227016704\n[STDOUT RAW] out_time_us=14199769958\n[STDOUT RAW] out_time_ms=14199769958\n[STDOUT RAW] out_time=03:56:39.769958\n[STDOUT RAW] dup_frames=0\n[STDOUT RAW] drop_frames=0\n[STDOUT RAW] speed=200x\n[STDOUT RAW] progress=continue\n[STDOUT RAW] bitrate= 127.9kbits/s\n[STDERR RAW] size=  221696KiB time=03:56:39.76 bitrate= 127.9kbits/s speed=200x\n[STDOUT RAW] total_size=228327424\n[STDOUT RAW] out_time_us=14282785958\n[STDOUT RAW] out_time_ms=14282785958\n[STDOUT RAW] out_time=03:58:02.785958\n[STDOUT RAW] dup_frames=0\n[STDOUT RAW] drop_frames=0\n[STDOUT RAW] speed= 199x\n[STDOUT RAW] progress=continue\n[STDERR RAW] size=  222976KiB time=03:58:02.78 bitrate= 127.9kbits/s speed= 199x\n[STDOUT RAW] bitrate= 128.0kbits/s\n[STDOUT RAW] total_size=229638144\n[STDOUT RAW] out_time_us=14353993958\n[STDOUT RAW] out_time_ms=14353993958\n[STDOUT RAW] out_time=03:59:13.993958\n[STDOUT RAW] dup_frames=0\n[STDOUT RAW] drop_frames=0\n[STDOUT RAW] speed= 199x\n[STDOUT RAW] progress=continue\n[STDERR RAW] size=  224256KiB time=03:59:13.99 bitrate= 128.0kbits/s speed= 199x\n[STDOUT RAW] bitrate= 128.0kbits/s\n[STDOUT RAW] total_size=230424576\n[STDOUT RAW] out_time_us=14406769958\n[STDOUT RAW] out_time_ms=14406769958\n[STDOUT RAW] out_time=04:00:06.769958\n[STDOUT RAW] dup_frames=0\n[STDOUT RAW] drop_frames=0\n[STDOUT RAW] speed= 198x\n[STDOUT RAW] progress=continue\n[STDERR RAW] size=  225024KiB time=04:00:06.76 bitrate= 128.0kbits/s speed= 198x\n[STDOUT RAW] bitrate= 128.0kbits/s\n[STDOUT RAW] total_size=231735296\n[STDOUT RAW] out_time_us=14488009958\n[STDOUT RAW] out_time_ms=14488009958\n[STDOUT RAW] out_time=04:01:28.009958\n[STDOUT RAW] dup_frames=0\n[STDOUT RAW] drop_frames=0\n[STDOUT RAW] speed= 198x\n[STDOUT RAW] progress=continue\n[STDERR RAW] size=  226304KiB time=04:01:28.00 bitrate= 128.0kbits/s speed= 198x\n[STDOUT RAW] bitrate= 128.0kbits/s\n[STDOUT RAW] total_size=233046016\n[STDOUT RAW] out_time_us=14568865958\n[STDOUT RAW] out_time_ms=14568865958\n[STDOUT RAW] out_time=04:02:48.865958\n[STDOUT RAW] dup_frames=0\n[STDOUT RAW] drop_frames=0\n[STDOUT RAW] speed= 198x\n[STDOUT RAW] progress=continue\n[STDERR RAW] size=  227584KiB time=04:02:48.86 bitrate= 128.0kbits/s speed= 198x\n[STDOUT RAW] bitrate= 127.9kbits/s\n[STDOUT RAW] total_size=234356736\n[STDOUT RAW] out_time_us=14659969958\n[STDOUT RAW] out_time_ms=14659969958\n[STDOUT RAW] out_time=04:04:19.969958\n[STDOUT RAW] dup_frames=0\n[STDOUT RAW] drop_frames=0\n[STDOUT RAW] speed= 197x\n[STDOUT RAW] progress=continue\n[STDERR RAW] size=  228864KiB time=04:04:19.96 bitrate= 127.9kbits/s speed= 197x\n[STDOUT RAW] bitrate= 127.9kbits/s\n[STDOUT RAW] total_size=235929600\n[STDOUT RAW] out_time_us=14753785958\n[STDOUT RAW] out_time_ms=14753785958\n[STDOUT RAW] out_time=04:05:53.785958\n[STDOUT RAW] dup_frames=0\n[STDOUT RAW] drop_frames=0\n[STDOUT RAW] speed= 197x\n[STDOUT RAW] progress=continue\n[STDERR RAW] size=  230400KiB time=04:05:53.78 bitrate= 127.9kbits/s speed= 197x\n[STDOUT RAW] bitrate= 128.0kbits/s\n[STDOUT RAW] total_size=237502464\n[STDOUT RAW] out_time_us=14845801958\n[STDOUT RAW] out_time_ms=14845801958\n[STDOUT RAW] out_time=04:07:25.801958\n[STDOUT RAW] dup_frames=0\n[STDOUT RAW] drop_frames=0\n[STDOUT RAW] speed= 197x\n[STDOUT RAW] progress=continue\n[STDERR RAW] size=  231936KiB time=04:07:25.80 bitrate= 128.0kbits/s speed= 197x\n[STDOUT RAW] bitrate= 127.9kbits/s\n[STDOUT RAW] total_size=238813184\n[STDOUT RAW] out_time_us=14941105958\n[STDOUT RAW] out_time_ms=14941105958\n[STDOUT RAW] out_time=04:09:01.105958\n[STDOUT RAW] dup_frames=0\n[STDOUT RAW] drop_frames=0\n[STDOUT RAW] speed= 197x\n[STDOUT RAW] progress=continue\n[STDERR RAW] size=  233216KiB time=04:09:01.10 bitrate= 127.9kbits/s speed= 197x\n[STDOUT RAW] bitrate= 127.9kbits/s\n[STDOUT RAW] total_size=240386048\n[STDOUT RAW] out_time_us=15031585958\n[STDOUT RAW] out_time_ms=15031585958\n[STDOUT RAW] out_time=04:10:31.585958\n[STDOUT RAW] dup_frames=0\n[STDOUT RAW] drop_frames=0\n[STDOUT RAW] speed= 197x\n[STDOUT RAW] progress=continue\n[STDERR RAW] size=  234752KiB time=04:10:31.58 bitrate= 127.9kbits/s speed= 197x\n[STDOUT RAW] bitrate= 128.0kbits/s\n[STDOUT RAW] total_size=241696768\n[STDOUT RAW] out_time_us=15110713958\n[STDOUT RAW] out_time_ms=15110713958\n[STDOUT RAW] out_time=04:11:50.713958\n[STDOUT RAW] dup_frames=0\n[STDOUT RAW] drop_frames=0\n[STDOUT RAW] speed= 197x\n[STDOUT RAW] progress=continue\n[STDERR RAW] size=  236032KiB time=04:11:50.71 bitrate= 128.0kbits/s speed= 197x\n[STDOUT RAW] bitrate= 127.9kbits/s\n[STDOUT RAW] total_size=243007488\n[STDOUT RAW] out_time_us=15200593958\n[STDOUT RAW] out_time_ms=15200593958\n[STDOUT RAW] out_time=04:13:20.593958\n[STDOUT RAW] dup_frames=0\n[STDOUT RAW] drop_frames=0\n[STDOUT RAW] speed= 197x\n[STDOUT RAW] progress=continue\n[STDERR RAW] size=  237312KiB time=04:13:20.59 bitrate= 127.9kbits/s speed= 197x\n[STDOUT RAW] bitrate= 128.0kbits/s\n[STDOUT RAW] total_size=244580352\n[STDOUT RAW] out_time_us=15287137958\n[STDOUT RAW] out_time_ms=15287137958\n[STDOUT RAW] out_time=04:14:47.137958\n[STDOUT RAW] dup_frames=0\n[STDOUT RAW] drop_frames=0\n[STDOUT RAW] speed= 196x\n[STDOUT RAW] progress=continue\n[STDERR RAW] size=  238848KiB time=04:14:47.13 bitrate= 128.0kbits/s speed= 196x\n[STDOUT RAW] bitrate= 127.9kbits/s\n[STDOUT RAW] total_size=245891072\n[STDOUT RAW] out_time_us=15384697958\n[STDOUT RAW] out_time_ms=15384697958\n[STDOUT RAW] out_time=04:16:24.697958\n[STDOUT RAW] dup_frames=0\n[STDOUT RAW] drop_frames=0\n[STDOUT RAW] speed= 196x\n[STDOUT RAW] progress=continue\n[STDERR RAW] size=  240128KiB time=04:16:24.69 bitrate= 127.9kbits/s speed= 196x\n[STDOUT RAW] bitrate= 128.0kbits/s\n[STDOUT RAW] total_size=247726080\n[STDOUT RAW] out_time_us=15483745958\n[STDOUT RAW] out_time_ms=15483745958\n[STDOUT RAW] out_time=04:18:03.745958\n[STDOUT RAW] dup_frames=0\n[STDOUT RAW] drop_frames=0\n[STDOUT RAW] speed= 196x\n[STDOUT RAW] progress=continue\n[STDERR RAW] size=  241920KiB time=04:18:03.74 bitrate= 128.0kbits/s speed= 196x\n[STDOUT RAW] bitrate= 128.0kbits/s\n[STDOUT RAW] total_size=249298944\n[STDOUT RAW] out_time_us=15581473958\n[STDOUT RAW] out_time_ms=15581473958\n[STDOUT RAW] out_time=04:19:41.473958\n[STDOUT RAW] dup_frames=0\n[STDOUT RAW] drop_frames=0\n[STDOUT RAW] speed= 196x\n[STDOUT RAW] progress=continue\n[STDERR RAW] size=  243456KiB time=04:19:41.47 bitrate= 128.0kbits/s speed= 196x\n[STDOUT RAW] bitrate= 127.9kbits/s\n[STDOUT RAW] total_size=250609664\n[STDOUT RAW] out_time_us=15679177958\n[STDOUT RAW] out_time_ms=15679177958\n[STDOUT RAW] out_time=04:21:19.177958\n[STDOUT RAW] dup_frames=0\n[STDOUT RAW] drop_frames=0\n[STDOUT RAW] speed= 196x\n[STDOUT RAW] progress=continue\n[STDERR RAW] size=  244736KiB time=04:21:19.17 bitrate= 127.9kbits/s speed= 196x\n[STDOUT RAW] bitrate= 127.9kbits/s\n[STDOUT RAW] total_size=252182528\n[STDOUT RAW] out_time_us=15771529958\n[STDOUT RAW] out_time_ms=15771529958\n[STDOUT RAW] out_time=04:22:51.529958\n[STDOUT RAW] dup_frames=0\n[STDOUT RAW] drop_frames=0\n[STDOUT RAW] speed= 196x\n[STDOUT RAW] progress=continue\n[STDOUT RAW] bitrate= 127.9kbits/s\n[STDOUT RAW] total_size=253493248\n[STDOUT RAW] out_time_us=15859849958\n[STDOUT RAW] out_time_ms=15859849958\n[STDERR RAW] size=  246272KiB time=04:22:51.52 bitrate= 127.9kbits/s speed= 196x\n[STDOUT RAW] out_time=04:24:19.849958\n[STDOUT RAW] dup_frames=0\n[STDOUT RAW] drop_frames=0\n[STDOUT RAW] speed= 196x\n[STDOUT RAW] progress=continue\n[STDOUT RAW] bitrate= 128.0kbits/s\n[STDERR RAW] size=  247552KiB time=04:24:19.84 bitrate= 127.9kbits/s speed= 196x\n[STDOUT RAW] total_size=255066112\n[STDOUT RAW] out_time_us=15947233958\n[STDOUT RAW] out_time_ms=15947233958\n[STDOUT RAW] out_time=04:25:47.233958\n[STDOUT RAW] dup_frames=0\n[STDOUT RAW] drop_frames=0\n[STDOUT RAW] speed= 196x\n[STDOUT RAW] progress=continue\n[STDERR RAW] size=  249088KiB time=04:25:47.23 bitrate= 128.0kbits/s speed= 196x\n[STDOUT RAW] bitrate= 127.9kbits/s\n[STDOUT RAW] total_size=256376832\n[STDOUT RAW] out_time_us=16040065958\n[STDOUT RAW] out_time_ms=16040065958\n[STDOUT RAW] out_time=04:27:20.065958\n[STDOUT RAW] dup_frames=0\n[STDOUT RAW] drop_frames=0\n[STDOUT RAW] speed= 196x\n[STDOUT RAW] progress=continue\n[STDERR RAW] size=  250368KiB time=04:27:20.06 bitrate= 127.9kbits/s speed= 196x\n[STDOUT RAW] bitrate= 127.9kbits/s\n[STDOUT RAW] total_size=257949696\n[STDOUT RAW] out_time_us=16138369958\n[STDOUT RAW] out_time_ms=16138369958\n[STDOUT RAW] out_time=04:28:58.369958\n[STDOUT RAW] dup_frames=0\n[STDOUT RAW] drop_frames=0\n[STDOUT RAW] speed= 196x\n[STDOUT RAW] progress=continue\n[STDERR RAW] size=  251904KiB time=04:28:58.36 bitrate= 127.9kbits/s speed= 196x\n[STDOUT RAW] bitrate= 127.9kbits/s\n[STDOUT RAW] total_size=259522560\n[STDOUT RAW] out_time_us=16236553958\n[STDOUT RAW] out_time_ms=16236553958\n[STDOUT RAW] out_time=04:30:36.553958\n[STDOUT RAW] dup_frames=0\n[STDOUT RAW] drop_frames=0\n[STDOUT RAW] speed= 196x\n[STDOUT RAW] progress=continue\n[STDOUT RAW] bitrate= 127.9kbits/s\n[STDERR RAW] size=  253440KiB time=04:30:36.55 bitrate= 127.9kbits/s speed= 196x\n[STDOUT RAW] total_size=261357568\n[STDOUT RAW] out_time_us=16342873958\n[STDOUT RAW] out_time_ms=16342873958\n[STDOUT RAW] out_time=04:32:22.873958\n[STDOUT RAW] dup_frames=0\n[STDOUT RAW] drop_frames=0\n[STDOUT RAW] speed= 196x\n[STDOUT RAW] progress=continue\n[STDERR RAW] size=  255232KiB time=04:32:22.87 bitrate= 127.9kbits/s speed= 196x\n[STDOUT RAW] bitrate= 127.9kbits/s\n[STDOUT RAW] total_size=262930432\n[STDOUT RAW] out_time_us=16445785958\n[STDOUT RAW] out_time_ms=16445785958\n[STDOUT RAW] out_time=04:34:05.785958\n[STDOUT RAW] dup_frames=0\n[STDOUT RAW] drop_frames=0\n[STDOUT RAW] speed= 196x\n[STDOUT RAW] progress=continue\n[STDERR RAW] size=  256768KiB time=04:34:05.78 bitrate= 127.9kbits/s speed= 196x\n[STDOUT RAW] bitrate= 127.9kbits/s\n[STDOUT RAW] total_size=264241152\n[STDOUT RAW] out_time_us=16531585958\n[STDOUT RAW] out_time_ms=16531585958\n[STDOUT RAW] out_time=04:35:31.585958\n[STDOUT RAW] dup_frames=0\n[STDOUT RAW] drop_frames=0\n[STDOUT RAW] speed= 195x\n[STDOUT RAW] progress=continue\n[STDERR RAW] size=  258048KiB time=04:35:31.58 bitrate= 127.9kbits/s speed= 195x\n[STDOUT RAW] bitrate= 127.9kbits/s\n[STDOUT RAW] total_size=265814016\n[STDOUT RAW] out_time_us=16629889958\n[STDOUT RAW] out_time_ms=16629889958\n[STDOUT RAW] out_time=04:37:09.889958\n[STDOUT RAW] dup_frames=0\n[STDOUT RAW] drop_frames=0\n[STDOUT RAW] speed= 195x\n[STDOUT RAW] progress=continue\n[STDOUT RAW] bitrate= 127.9kbits/s\n[STDOUT RAW] total_size=267386880\n[STDOUT RAW] out_time_us=16726081958\n[STDERR RAW] size=  259584KiB time=04:37:09.88 bitrate= 127.9kbits/s speed= 195x\n[STDOUT RAW] out_time_ms=16726081958\n[STDOUT RAW] out_time=04:38:46.081958\n[STDOUT RAW] dup_frames=0\n[STDOUT RAW] drop_frames=0\n[STDOUT RAW] speed= 195x\n[STDOUT RAW] progress=continue\n[STDERR RAW] size=  261120KiB time=04:38:46.08 bitrate= 127.9kbits/s speed= 195x\n[STDOUT RAW] bitrate= 128.0kbits/s\n[STDOUT RAW] total_size=268959744\n[STDOUT RAW] out_time_us=16816153958\n[STDOUT RAW] out_time_ms=16816153958\n[STDOUT RAW] out_time=04:40:16.153958\n[STDOUT RAW] dup_frames=0\n[STDOUT RAW] drop_frames=0\n[STDOUT RAW] speed= 195x\n[STDOUT RAW] progress=continue\n[STDERR RAW] size=  262656KiB time=04:40:16.15 bitrate= 128.0kbits/s speed= 195x\n[STDOUT RAW] bitrate= 127.9kbits/s\n[STDOUT RAW] total_size=270532608\n[STDOUT RAW] out_time_us=16915225958\n[STDOUT RAW] out_time_ms=16915225958\n[STDOUT RAW] out_time=04:41:55.225958\n[STDOUT RAW] dup_frames=0\n[STDOUT RAW] drop_frames=0\n[STDOUT RAW] speed= 195x\n[STDOUT RAW] progress=continue\n[STDERR RAW] size=  264192KiB time=04:41:55.22 bitrate= 127.9kbits/s speed= 195x\n[STDOUT RAW] bitrate= 128.0kbits/s\n[STDOUT RAW] total_size=272105472\n[STDOUT RAW] out_time_us=17010553958\n[STDOUT RAW] out_time_ms=17010553958\n[STDOUT RAW] out_time=04:43:30.553958\n[STDOUT RAW] dup_frames=0\n[STDOUT RAW] drop_frames=0\n[STDOUT RAW] speed= 195x\n[STDOUT RAW] progress=continue\n[STDERR RAW] size=  265728KiB time=04:43:30.55 bitrate= 128.0kbits/s speed= 195x\n[STDOUT RAW] bitrate= 127.9kbits/s\n[STDOUT RAW] total_size=273416192\n[STDOUT RAW] out_time_us=17100673958\n[STDOUT RAW] out_time_ms=17100673958\n[STDOUT RAW] out_time=04:45:00.673958\n[STDOUT RAW] dup_frames=0\n[STDOUT RAW] drop_frames=0\n[STDOUT RAW] speed= 195x\n[STDOUT RAW] progress=continue\n[STDERR RAW] size=  267008KiB time=04:45:00.67 bitrate= 127.9kbits/s speed= 195x\n[STDOUT RAW] bitrate= 127.9kbits/s\n[STDOUT RAW] total_size=274989056\n[STDOUT RAW] out_time_us=17201257958\n[STDOUT RAW] out_time_ms=17201257958\n[STDOUT RAW] out_time=04:46:41.257958\n[STDOUT RAW] dup_frames=0\n[STDOUT RAW] drop_frames=0\n[STDOUT RAW] speed= 195x\n[STDOUT RAW] progress=continue\n[STDERR RAW] size=  268544KiB time=04:46:41.25 bitrate= 127.9kbits/s speed= 195x\n[STDOUT RAW] bitrate= 128.0kbits/s\n[STDOUT RAW] total_size=276561920\n[STDOUT RAW] out_time_us=17291785958\n[STDOUT RAW] out_time_ms=17291785958\n[STDOUT RAW] out_time=04:48:11.785958\n[STDOUT RAW] dup_frames=0\n[STDOUT RAW] drop_frames=0\n[STDOUT RAW] speed= 195x\n[STDOUT RAW] progress=continue\n[STDERR RAW] size=  270080KiB time=04:48:11.78 bitrate= 128.0kbits/s speed= 195x\n[STDOUT RAW] bitrate= 128.0kbits/s\n[STDOUT RAW] total_size=278134784\n[STDOUT RAW] out_time_us=17383873958\n[STDOUT RAW] out_time_ms=17383873958\n[STDOUT RAW] out_time=04:49:43.873958\n[STDOUT RAW] dup_frames=0\n[STDOUT RAW] drop_frames=0\n[STDOUT RAW] speed= 195x\n[STDOUT RAW] progress=continue\n[STDOUT RAW] bitrate= 127.9kbits/s\n[STDOUT RAW] total_size=279445504\n[STDOUT RAW] out_time_us=17481865958\n[STDOUT RAW] out_time_ms=17481865958\n[STDERR RAW] size=  271616KiB time=04:49:43.87 bitrate= 128.0kbits/s speed= 195x\n[STDOUT RAW] out_time=04:51:21.865958\n[STDOUT RAW] dup_frames=0\n[STDOUT RAW] drop_frames=0\n[STDOUT RAW] speed= 195x\n[STDOUT RAW] progress=continue\n[STDERR RAW] size=  272896KiB time=04:51:21.86 bitrate= 127.9kbits/s speed= 195x\n[STDOUT RAW] bitrate= 127.9kbits/s\n[STDOUT RAW] total_size=281018368\n[STDOUT RAW] out_time_us=17580169958\n[STDOUT RAW] out_time_ms=17580169958\n[STDOUT RAW] out_time=04:53:00.169958\n[STDOUT RAW] dup_frames=0\n[STDOUT RAW] drop_frames=0\n[STDOUT RAW] speed= 195x\n[STDOUT RAW] progress=continue\n[STDERR RAW] size=  274432KiB time=04:53:00.16 bitrate= 127.9kbits/s speed= 195x\n[STDOUT RAW] bitrate= 127.9kbits/s\n[STDOUT RAW] total_size=282853376\n[STDOUT RAW] out_time_us=17686897958\n[STDOUT RAW] out_time_ms=17686897958\n[STDOUT RAW] out_time=04:54:46.897958\n[STDOUT RAW] dup_frames=0\n[STDOUT RAW] drop_frames=0\n[STDOUT RAW] speed= 195x\n[STDOUT RAW] progress=continue\n[STDERR RAW] size=  276224KiB time=04:54:46.89 bitrate= 127.9kbits/s speed= 195x\n[STDOUT RAW] bitrate= 127.9kbits/s\n[STDOUT RAW] total_size=284426240\n[STDOUT RAW] out_time_us=17793145958\n[STDOUT RAW] out_time_ms=17793145958\n[STDOUT RAW] out_time=04:56:33.145958\n[STDOUT RAW] dup_frames=0\n[STDOUT RAW] drop_frames=0\n[STDOUT RAW] speed= 195x\n[STDOUT RAW] progress=continue\n[STDERR RAW] size=  277760KiB time=04:56:33.14 bitrate= 127.9kbits/s speed= 195x\n[STDOUT RAW] bitrate= 127.9kbits/s\n[STDOUT RAW] total_size=285999104\n[STDOUT RAW] out_time_us=17887441958\n[STDOUT RAW] out_time_ms=17887441958\n[STDOUT RAW] out_time=04:58:07.441958\n[STDOUT RAW] dup_frames=0\n[STDOUT RAW] drop_frames=0\n[STDOUT RAW] speed= 195x\n[STDOUT RAW] progress=continue\n[STDERR RAW] size=  279296KiB time=04:58:07.44 bitrate= 127.9kbits/s speed= 195x\n[STDOUT RAW] bitrate= 127.9kbits/s\n[STDOUT RAW] total_size=287571968\n[STDOUT RAW] out_time_us=17988649958\n[STDOUT RAW] out_time_ms=17988649958\n[STDOUT RAW] out_time=04:59:48.649958\n[STDOUT RAW] dup_frames=0\n[STDOUT RAW] drop_frames=0\n[STDOUT RAW] speed= 195x\n[STDOUT RAW] progress=continue\n[STDERR RAW] size=  280832KiB time=04:59:48.64 bitrate= 127.9kbits/s speed= 195x\n[STDOUT RAW] bitrate= 127.9kbits/s\n[STDOUT RAW] total_size=289406976\n[STDOUT RAW] out_time_us=18095305958\n[STDOUT RAW] out_time_ms=18095305958\n[STDOUT RAW] out_time=05:01:35.305958\n[STDOUT RAW] dup_frames=0\n[STDOUT RAW] drop_frames=0\n[STDOUT RAW] speed= 195x\n[STDOUT RAW] progress=continue\n[STDERR RAW] size=  282624KiB time=05:01:35.30 bitrate= 127.9kbits/s speed= 195x\n[STDOUT RAW] bitrate= 127.9kbits/s\n[STDOUT RAW] total_size=290979840\n[STDOUT RAW] out_time_us=18200425958\n[STDOUT RAW] out_time_ms=18200425958\n[STDOUT RAW] out_time=05:03:20.425958\n[STDOUT RAW] dup_frames=0\n[STDOUT RAW] drop_frames=0\n[STDOUT RAW] speed= 195x\n[STDOUT RAW] progress=continue\n[STDERR RAW] size=  284160KiB time=05:03:20.42 bitrate= 127.9kbits/s speed= 195x\n[STDERR RAW] size=  284917KiB time=05:03:54.61 bitrate= 128.0kbits/s speed= 195x\n[STDOUT RAW] bitrate= 128.0kbits/s\n[STDOUT RAW] total_size=291755180\n[STDOUT RAW] out_time_us=18234618667\n[STDOUT RAW] out_time_ms=18234618667\n[STDOUT RAW] out_time=05:03:54.618667\n[STDOUT RAW] dup_frames=0\n[STDOUT RAW] drop_frames=0\n[STDOUT RAW] speed= 195x\n[STDOUT RAW] progress=end\n[ConversionWorker] STDERR pipe closed signal received.\n[ConversionWorker] Detected 'progress=end' for 黄蓉02.wav\n[ConversionWorker] STDOUT pipe closed signal received.\n[ConversionWorker] Process finished and both stream pipes closed. Exiting loop.\n[ConversionWorker] Waiting for reader threads to join...\n[ConversionWorker] FFmpeg process ended. Return code: 0\n[ConversionWorker] Closing FFmpeg log file.\n